<?xml version="1.0" encoding="UTF-8"?>
<svg version="1.1" xmlns="http://www.w3.org/2000/svg" width="544" height="354">
<path d="M0 0 C179.52 0 359.04 0 544 0 C544 116.82 544 233.64 544 354 C364.48 354 184.96 354 0 354 C0 237.18 0 120.36 0 0 Z " fill="#FEFEFE" transform="translate(0,0)"/>
<path d="M0 0 C1.39781618 0.73895235 2.7695471 1.5285431 4.1171875 2.35546875 C4.88933594 2.81244141 5.66148438 3.26941406 6.45703125 3.74023438 C8.06846789 4.7047534 9.67272914 5.68136331 11.26953125 6.66992188 C15.86165187 9.44544704 15.86165187 9.44544704 21.0625 9.59375 C25.52785199 7.17105902 29.91687688 4.65965768 34.25390625 2.01367188 C34.93582031 1.61341797 35.61773437 1.21316406 36.3203125 0.80078125 C37.23707764 0.24644409 37.23707764 0.24644409 38.17236328 -0.3190918 C40.54965939 -1.20478227 41.62426159 -0.82334837 44 0 C44.72541992 0.23452881 45.45083984 0.46905762 46.19824219 0.71069336 C52.47862752 3.06159435 58.68894979 5.69707724 63 11 C64.56628943 15.4606633 64.81639919 19.60779721 64.8125 24.3125 C64.82845215 26.0303772 64.82845215 26.0303772 64.84472656 27.78295898 C64.56515576 32.43372149 64.35479108 35.74103934 60.83935547 39.0078125 C58.28477751 40.549261 55.72921021 41.80008175 53 43 C51.9790625 43.62648437 50.958125 44.25296875 49.90625 44.8984375 C49.1121875 45.38570312 48.318125 45.87296875 47.5 46.375 C46.6853125 46.87773437 45.870625 47.38046875 45.03125 47.8984375 C43 49 43 49 41 49 C41.05236816 49.75619629 41.10473633 50.51239258 41.15869141 51.29150391 C41.36722117 54.73514862 41.49677093 58.17746992 41.625 61.625 C41.70878906 62.81480469 41.79257813 64.00460938 41.87890625 65.23046875 C41.97694748 68.74034484 41.93421544 71.61091809 41 75 C38.03969114 77.91492022 34.78658238 79.38061782 31 81 C30.02546875 81.63808594 29.0509375 82.27617187 28.046875 82.93359375 C27.28890625 83.42988281 26.5309375 83.92617187 25.75 84.4375 C24.98171875 84.95183594 24.2134375 85.46617187 23.421875 85.99609375 C20.06045922 87.38945481 18.49454662 87.04458836 15 86 C11.95744172 84.49824762 9.0778415 82.77412266 6.1875 81 C5.41212891 80.5359375 4.63675781 80.071875 3.83789062 79.59375 C-1.79958791 76.20041209 -1.79958791 76.20041209 -3 75 C-3.08748207 73.07332493 -3.10697334 71.14348139 -3.09765625 69.21484375 C-3.09443359 68.04501953 -3.09121094 66.87519531 -3.08789062 65.66992188 C-3.07951172 64.43822266 -3.07113281 63.20652344 -3.0625 61.9375 C-3.05798828 60.70193359 -3.05347656 59.46636719 -3.04882812 58.19335938 C-3.03699608 55.12885883 -3.02051173 52.06445279 -3 49 C-5.36242175 48.04090266 -7.71691133 47.09742641 -10.12817383 46.26757812 C-15.83523822 44.24614463 -21.19405679 41.85555185 -25 37 C-28.12534178 28.85393884 -28.25334603 19.11836641 -25 11 C-20.07405406 5.18622356 -13.00672409 2.52620434 -6 0 C-3.44402689 -1.27798655 -2.66868491 -0.88823758 0 0 Z " fill="#DFB047" transform="translate(104,146)"/>
<path d="M0 0 C3.1253146 1.18886104 5.97104056 2.47416565 8.8125 4.234375 C9.49570313 4.64300781 10.17890625 5.05164063 10.8828125 5.47265625 C12.30122832 6.32841635 13.712709 7.19577187 15.1171875 8.07421875 C19.04689962 10.52160375 19.04689962 10.52160375 23.48828125 10.5546875 C24.31714844 10.04164063 25.14601563 9.52859375 26 9 C27.30478079 8.27646167 28.61089996 7.55533434 29.91796875 6.8359375 C32.07631819 5.59803125 34.22908397 4.35085686 36.38085938 3.1015625 C41.79348874 0 41.79348874 0 44 0 C44.29146369 4.04013515 44.46829657 8.07757429 44.625 12.125 C44.70878906 13.26710937 44.79257813 14.40921875 44.87890625 15.5859375 C44.97770015 18.98444772 44.93252991 21.72567699 44 25 C41.03158098 27.87843534 37.76112824 29.3654199 34 31 C33.02546875 31.63808594 32.0509375 32.27617187 31.046875 32.93359375 C30.28890625 33.42988281 29.5309375 33.92617187 28.75 34.4375 C27.98171875 34.95183594 27.2134375 35.46617187 26.421875 35.99609375 C23.06045922 37.38945481 21.49454662 37.04458836 18 36 C14.95744172 34.49824762 12.0778415 32.77412266 9.1875 31 C8.02444336 30.30390625 8.02444336 30.30390625 6.83789062 29.59375 C1.20041209 26.20041209 1.20041209 26.20041209 0 25 C-0.08737645 23.14630389 -0.10698153 21.28932459 -0.09765625 19.43359375 C-0.09443359 18.30888672 -0.09121094 17.18417969 -0.08789062 16.02539062 C-0.07951172 14.84138672 -0.07113281 13.65738281 -0.0625 12.4375 C-0.05798828 11.24962891 -0.05347656 10.06175781 -0.04882812 8.83789062 C-0.03699675 5.89187774 -0.02051287 2.94596319 0 0 Z " fill="#4598CD" transform="translate(101,196)"/>
<path d="M0 0 C4.61963365 2.20440724 8.61572135 4.29656604 11.88745117 8.32104492 C13.4537406 12.78170822 13.70385037 16.92884213 13.69995117 21.63354492 C13.71590332 23.35142212 13.71590332 23.35142212 13.73217773 25.10400391 C13.45260694 29.75476641 13.24224225 33.06208427 9.72680664 36.32885742 C7.17222868 37.87030592 4.61666138 39.12112667 1.88745117 40.32104492 C0.86651367 40.9475293 -0.15442383 41.57401367 -1.20629883 42.21948242 C-2.39739258 42.95038086 -2.39739258 42.95038086 -3.61254883 43.69604492 C-4.42723633 44.1987793 -5.24192383 44.70151367 -6.08129883 45.21948242 C-8.11254883 46.32104492 -8.11254883 46.32104492 -10.11254883 46.32104492 C-10.11254883 37.74104492 -10.11254883 29.16104492 -10.11254883 20.32104492 C-12.09254883 19.66104492 -14.07254883 19.00104492 -16.11254883 18.32104492 C-18.62786825 17.14256945 -21.01565342 15.76432357 -23.42504883 14.38354492 C-24.05733398 14.03614258 -24.68961914 13.68874023 -25.34106445 13.33081055 C-29.99153775 10.68407816 -29.99153775 10.68407816 -31.11254883 7.32104492 C-30.42290039 6.94592773 -29.73325195 6.57081055 -29.02270508 6.18432617 C-28.08297852 5.67256836 -27.14325195 5.16081055 -26.17504883 4.63354492 C-25.17473633 4.09213867 -24.17442383 3.55073242 -23.14379883 2.99291992 C-21.25217066 1.94959923 -19.37416883 0.88068577 -17.51879883 -0.22583008 C-16.74536133 -0.68473633 -15.97192383 -1.14364258 -15.17504883 -1.61645508 C-14.14057617 -2.24874023 -14.14057617 -2.24874023 -13.08520508 -2.89379883 C-8.95059627 -4.53945501 -3.89170315 -1.65200188 0 0 Z " fill="#C33D38" transform="translate(155.112548828125,148.678955078125)"/>
<path d="M0 0 C1.46520701 0.71748952 2.90728024 1.48339385 4.328125 2.28515625 C5.12734375 2.73310547 5.9265625 3.18105469 6.75 3.64257812 C7.575 4.11115234 8.4 4.57972656 9.25 5.0625 C10.09046875 5.53494141 10.9309375 6.00738281 11.796875 6.49414062 C13.86698876 7.65857961 15.93455014 8.8273145 18 10 C16.81343603 13.5596919 16.189091 13.74072675 13 15.4453125 C11.7934375 16.10080078 11.7934375 16.10080078 10.5625 16.76953125 C9.716875 17.21683594 8.87125 17.66414063 8 18.125 C6.33267028 19.02220639 4.6659692 19.92058234 3 20.8203125 C1.88625 21.41223389 1.88625 21.41223389 0.75 22.01611328 C-0.96885668 22.87891199 -0.96885668 22.87891199 -2 24 C-2.15786308 25.85174706 -2.25107356 27.7090911 -2.31640625 29.56640625 C-2.35830078 30.69111328 -2.40019531 31.81582031 -2.44335938 32.97460938 C-2.48267578 34.15861328 -2.52199219 35.34261719 -2.5625 36.5625 C-2.60568359 37.75037109 -2.64886719 38.93824219 -2.69335938 40.16210938 C-2.79983546 43.10794784 -2.90184841 46.0538743 -3 49 C-3.73822998 48.70029297 -4.47645996 48.40058594 -5.23706055 48.09179688 C-6.85536809 47.45231014 -8.48281281 46.83383751 -10.12817383 46.26757812 C-15.83523822 44.24614463 -21.19405679 41.85555185 -25 37 C-28.12534178 28.85393884 -28.25334603 19.11836641 -25 11 C-20.07405406 5.18622356 -13.00672409 2.52620434 -6 0 C-3.44147525 -1.27926238 -2.67524144 -0.87946888 0 0 Z " fill="#B5CA4A" transform="translate(104,146)"/>
<path d="M0 0 C3.3 0 6.6 0 10 0 C13.035957 8.32077103 16.02792076 16.65625296 19 25 C20.52573143 22.06727111 21.77657084 19.1071352 22.9453125 16.015625 C23.29980469 15.08105469 23.65429688 14.14648438 24.01953125 13.18359375 C24.38433594 12.21550781 24.74914062 11.24742188 25.125 10.25 C25.49753906 9.26644531 25.87007812 8.28289062 26.25390625 7.26953125 C27.1711507 4.84706513 28.08582521 2.4236262 29 0 C32.63 0 36.26 0 40 0 C40 0.66 40 1.32 40 2 C40.66 2 41.32 2 42 2 C42 1.34 42 0.68 42 0 C46.62 0 51.24 0 56 0 C56 0.66 56 1.32 56 2 C54.68 2.33 53.36 2.66 52 3 C52 12.9 52 22.8 52 33 C52.99 33.33 53.98 33.66 55 34 C52.87506859 34.02693575 50.75004088 34.04636628 48.625 34.0625 C47.44164062 34.07410156 46.25828125 34.08570313 45.0390625 34.09765625 C42 34 42 34 40 33 C40 33.66 40 34.32 40 35 C35.38 35 30.76 35 26 35 C26 34.34 26 33.68 26 33 C27.32 33 28.64 33 30 33 C29.505 20.625 29.505 20.625 29 8 C28.01 11.3 27.02 14.6 26 18 C25.16403271 20.14065613 24.29523201 22.26919302 23.375 24.375 C21.98438333 27.56920436 20.72766148 30.58807616 20 34 C19.01 34 18.02 34 17 34 C16.76812988 33.3294458 16.53625977 32.6588916 16.29736328 31.96801758 C15.24114389 28.91574939 14.18309024 25.86412012 13.125 22.8125 C12.76019531 21.75740234 12.39539063 20.70230469 12.01953125 19.61523438 C11.66503906 18.59365234 11.31054688 17.57207031 10.9453125 16.51953125 C10.62062988 15.58214111 10.29594727 14.64475098 9.96142578 13.67895508 C9.03321765 11.09255898 8.03714092 8.54442549 7 6 C6.91285684 9.91652632 6.85956015 13.83280311 6.8125 17.75 C6.78736328 18.86117187 6.76222656 19.97234375 6.73632812 21.1171875 C6.72666016 22.18710938 6.71699219 23.25703125 6.70703125 24.359375 C6.6913208 25.34389648 6.67561035 26.32841797 6.65942383 27.34277344 C6.83804518 30.46937661 6.83804518 30.46937661 10 34 C6.7 34 3.4 34 0 34 C0.99 32.68 1.98 31.36 3 30 C3.41222764 27.00236603 3.41222764 27.00236603 3.29296875 23.703125 C3.28330078 22.49785156 3.27363281 21.29257813 3.26367188 20.05078125 C3.23853516 18.79652344 3.21339844 17.54226562 3.1875 16.25 C3.17396484 14.98027344 3.16042969 13.71054688 3.14648438 12.40234375 C3.1111324 9.26780156 3.06178248 6.13411455 3 3 C2.01 2.67 1.02 2.34 0 2 C0 1.34 0 0.68 0 0 Z " fill="#ECEFF2" transform="translate(229,115)"/>
<path d="M0 0 C6.07592142 -0.46088796 12.13639133 -0.72623779 18.23046875 -0.609375 C19.22973389 -0.59358398 20.22899902 -0.57779297 21.25854492 -0.56152344 C24.73201249 0.14993577 26.07635256 1.47692986 28.375 4.125 C29.26869225 6.074874 30.14129549 8.03446674 31 10 C32.71086445 12.61783707 34.57727643 15.11212322 36.4375 17.625 C37.943125 19.72875 39.44875 21.8325 41 24 C41 17.4 41 10.8 41 4 C39.68 3.34 38.36 2.68 37 2 C37 1.34 37 0.68 37 0 C40.96 0 44.92 0 49 0 C49 0.66 49 1.32 49 2 C47.02 2.99 47.02 2.99 45 4 C44.67 14.23 44.34 24.46 44 35 C43.34 35 42.68 35 42 35 C40.67480469 33.39868164 40.67480469 33.39868164 39.171875 31.16015625 C38.61886719 30.34353516 38.06585938 29.52691406 37.49609375 28.68554688 C36.63177734 27.38713867 36.63177734 27.38713867 35.75 26.0625 C35.18925781 25.23169922 34.62851563 24.40089844 34.05078125 23.54492188 C32.35933978 21.03510398 30.67816579 18.5187105 29 16 C28.41927734 15.12972168 27.83855469 14.25944336 27.24023438 13.36279297 C25.82587077 11.24249406 24.41245575 9.12157012 23 7 C22.97106068 10.62498334 22.95322208 14.24993713 22.9375 17.875 C22.92912109 18.90753906 22.92074219 19.94007813 22.91210938 21.00390625 C22.90888672 21.99003906 22.90566406 22.97617188 22.90234375 23.9921875 C22.89710693 24.90339355 22.89187012 25.81459961 22.88647461 26.75341797 C22.85114435 29.03687509 22.85114435 29.03687509 24 31 C24.99 31.33 25.98 31.66 27 32 C27 32.66 27 33.32 27 34 C18.09 34 9.18 34 0 34 C0 33.34 0 32.68 0 32 C1.32 31.67 2.64 31.34 4 31 C4 21.76 4 12.52 4 3 C2.68 2.67 1.36 2.34 0 2 C0 1.34 0 0.68 0 0 Z " fill="#F3F4F6" transform="translate(197,157)"/>
<path d="M0 0 C19.9808957 -2.85825259 19.9808957 -2.85825259 26.34814453 1.66992188 C30.25852531 5.82953571 33.13433778 10.6027389 35.73339844 15.66650391 C37.30100855 18.55455661 39.17721684 21.26582527 41 24 C41 17.4 41 10.8 41 4 C39.68 3.34 38.36 2.68 37 2 C37 1.34 37 0.68 37 0 C40.96 0 44.92 0 49 0 C49 0.66 49 1.32 49 2 C47.02 2.99 47.02 2.99 45 4 C44.67 13.9 44.34 23.8 44 34 C39.5 31.75 39.5 31.75 37.4140625 28.62109375 C36.72957031 27.60885742 36.72957031 27.60885742 36.03125 26.57617188 C35.5671875 25.87041016 35.103125 25.16464844 34.625 24.4375 C33.94050781 23.41946289 33.94050781 23.41946289 33.2421875 22.38085938 C31.81889192 20.25990908 30.40901264 18.130461 29 16 C27.8834087 14.32382144 26.7662308 12.64803347 25.6484375 10.97265625 C24.765625 9.6484375 23.8828125 8.32421875 23 7 C22.97106068 10.62498334 22.95322208 14.24993713 22.9375 17.875 C22.92912109 18.90753906 22.92074219 19.94007813 22.91210938 21.00390625 C22.90888672 21.99003906 22.90566406 22.97617188 22.90234375 23.9921875 C22.89710693 24.90339355 22.89187012 25.81459961 22.88647461 26.75341797 C22.85114435 29.03687509 22.85114435 29.03687509 24 31 C24.99 31.33 25.98 31.66 27 32 C27 32.66 27 33.32 27 34 C18.09 34 9.18 34 0 34 C0 33.34 0 32.68 0 32 C1.32 31.67 2.64 31.34 4 31 C4.09895097 27.06745992 4.1715042 23.13540254 4.21972656 19.2019043 C4.24971281 17.20660986 4.30053786 15.21166418 4.3515625 13.21679688 C4.36445313 11.96318359 4.37734375 10.70957031 4.390625 9.41796875 C4.41157227 8.26063232 4.43251953 7.1032959 4.45410156 5.91088867 C4.28658565 2.87880456 4.28658565 2.87880456 1.97558594 1.09887695 C1.32364258 0.73624756 0.67169922 0.37361816 0 0 Z " fill="#F2F4F6" transform="translate(197,199)"/>
<path d="M0 0 C4.75529797 2.24479384 7.73543984 5.2377632 10 10 C10.3984375 13.59375 10.3984375 13.59375 10.375 17.5 C10.38273437 18.7890625 10.39046875 20.078125 10.3984375 21.40625 C9.71795384 27.54394578 6.5264611 31.04456967 1.89453125 34.828125 C-1.19962239 36.74203447 -3.47851269 36.57624338 -7 36 C-12.29210308 34.37996845 -15.02123267 31.24634045 -17.859375 26.66796875 C-20.17184895 21.25899715 -20.12399614 15.42818824 -18.296875 9.85546875 C-14.34607137 2.17149051 -8.49867622 -1.84753831 0 0 Z " fill="#F9FAFB" transform="translate(425,198)"/>
<path d="M0 0 C4.07504445 2.51127503 7.31447962 5.4522752 9 10 C9.30078125 13.27734375 9.30078125 13.27734375 9.3125 16.9375 C9.33763672 18.74541016 9.33763672 18.74541016 9.36328125 20.58984375 C8.89905966 24.94753675 7.5288512 27.45947818 4.46484375 30.546875 C0.24994467 33.86705126 -2.25350283 35.52460947 -7.765625 35.484375 C-12.67965515 34.41909574 -16.49741978 30.27842229 -19.1953125 26.1875 C-21.29207851 20.48755356 -21.32830029 12.9453615 -18.83203125 7.41015625 C-13.77813407 0.43343958 -8.52777911 -2.65308683 0 0 Z " fill="#F7F8FA" transform="translate(303,157)"/>
<path d="M0 0 C4.57524304 2.44471141 7.40335708 6.12136886 9 11 C9.87955303 17.92892333 9.74183103 23.64543728 5.48046875 29.375 C2.0960055 33.08987259 -0.95944718 35.1927663 -6 35.5 C-10.27816695 35.2387379 -12.79223019 33.91615437 -16 31 C-20.65323907 24.98836194 -20.8388795 18.34278478 -20 11 C-18.26384225 5.69507354 -15.3547618 3.24290772 -11 0 C-7.47520493 -1.76239753 -3.73340882 -0.91135401 0 0 Z " fill="#F9F9FA" transform="translate(440,157)"/>
<path d="M0 0 C3.4165052 -0.08724706 6.83272313 -0.14047325 10.25 -0.1875 C11.70212891 -0.22520508 11.70212891 -0.22520508 13.18359375 -0.26367188 C14.58544922 -0.27817383 14.58544922 -0.27817383 16.015625 -0.29296875 C16.87446289 -0.3086792 17.73330078 -0.32438965 18.61816406 -0.34057617 C21.56952271 0.08143544 22.90204221 0.89699047 25 3 C25.7202381 8.04166667 25.7202381 8.04166667 25 11 C22.5 13.5 22.5 13.5 20 15 C20.49371094 15.27972656 20.98742187 15.55945313 21.49609375 15.84765625 C25.16093019 18.14094424 26.75667292 19.28282544 28.1875 23.5 C27.96088365 27.73017188 26.99926872 29.0840443 24 32 C20.74610012 34.16926659 19.86604043 34.24080049 16.11328125 34.1953125 C15.17548828 34.18886719 14.23769531 34.18242187 13.27148438 34.17578125 C12.29501953 34.15902344 11.31855469 34.14226562 10.3125 34.125 C9.32443359 34.11597656 8.33636719 34.10695312 7.31835938 34.09765625 C4.87866235 34.0740843 2.43945303 34.04118022 0 34 C0 33.34 0 32.68 0 32 C0.99 31.67 1.98 31.34 3 31 C3.33 21.43 3.66 11.86 4 2 C2.68 2 1.36 2 0 2 C0 1.34 0 0.68 0 0 Z " fill="#385172" transform="translate(314,199)"/>
<path d="M0 0 C0 5.61 0 11.22 0 17 C-13.33534832 24.46144489 -13.33534832 24.46144489 -18.015625 23.1640625 C-26.08579266 19.32391026 -26.08579266 19.32391026 -27.74414062 15.10839844 C-28.83880284 10.06130691 -28.90885874 4.8523089 -27 0 C-17.21213906 -10.23276371 -10.61348392 -5.93849695 0 0 Z " fill="#90B04D" transform="translate(182,200)"/>
<path d="M0 0 C0.97453125 0.54527344 1.9490625 1.09054688 2.953125 1.65234375 C3.93796875 2.20019531 4.9228125 2.74804688 5.9375 3.3125 C6.68515625 3.73402344 7.4328125 4.15554687 8.203125 4.58984375 C9.62717444 16.31188033 9.62717444 16.31188033 8.203125 21.58984375 C4.7976661 25.40611991 1.18347887 27.44472589 -3.796875 28.58984375 C-6.890625 27.8671875 -6.890625 27.8671875 -9.796875 26.58984375 C-10.63992187 26.27789062 -11.48296875 25.9659375 -12.3515625 25.64453125 C-15.1565151 24.21844424 -16.81901482 23.06321879 -18.796875 20.58984375 C-20.33318846 14.87234779 -20.43521321 10.29196036 -18.796875 4.58984375 C-12.99243014 -1.36479223 -7.42389978 -3.74305561 0 0 Z " fill="#C33E39" transform="translate(82.796875,195.41015625)"/>
<path d="M0 0 C3.7685949 1.83598213 7.34911316 3.93263034 11 6 C11 11.28 11 16.56 11 22 C7.9371875 23.7634375 7.9371875 23.7634375 4.8125 25.5625 C3.86274292 26.12432983 3.86274292 26.12432983 2.89379883 26.69750977 C0.24635676 28.17042618 -1.57423052 29.02597701 -4.625 28.83984375 C-5.40875 28.56269531 -6.1925 28.28554687 -7 28 C-7.81082031 27.731875 -8.62164062 27.46375 -9.45703125 27.1875 C-12.37878693 25.71450875 -14.01462803 24.63867814 -16 22 C-17.15587422 16.43002642 -16.50670482 10.61754231 -16 5 C-14.28133783 3.9615789 -12.54955402 2.94485365 -10.8125 1.9375 C-9.84957031 1.36902344 -8.88664062 0.80054687 -7.89453125 0.21484375 C-4.54091176 -1.19268076 -3.38885687 -1.1860999 0 0 Z " fill="#479AD0" transform="translate(126,116)"/>
<path d="M0 0 C3.11408149 1.19832069 6.04828417 2.4882363 8.953125 4.12890625 C9.654375 4.52400391 10.355625 4.91910156 11.078125 5.32617188 C11.79484375 5.73416016 12.5115625 6.14214844 13.25 6.5625 C13.9821875 6.97435547 14.714375 7.38621094 15.46875 7.81054688 C20.86137393 10.86137393 20.86137393 10.86137393 22 12 C22.08737645 13.85369611 22.10698153 15.71067541 22.09765625 17.56640625 C22.09443359 18.69111328 22.09121094 19.81582031 22.08789062 20.97460938 C22.07951172 22.15861328 22.07113281 23.34261719 22.0625 24.5625 C22.05798828 25.75037109 22.05347656 26.93824219 22.04882812 28.16210938 C22.03699675 31.10812226 22.02051287 34.05403681 22 37 C16.85271493 35.53506506 12.69822932 33.2231504 8.1875 30.4375 C7.50751953 30.02564453 6.82753906 29.61378906 6.12695312 29.18945312 C1.16952328 26.16952328 1.16952328 26.16952328 0 25 C-0.08737645 23.14630389 -0.10698153 21.28932459 -0.09765625 19.43359375 C-0.09443359 18.30888672 -0.09121094 17.18417969 -0.08789062 16.02539062 C-0.07951172 14.84138672 -0.07113281 13.65738281 -0.0625 12.4375 C-0.05798828 11.24962891 -0.05347656 10.06175781 -0.04882812 8.83789062 C-0.03699675 5.89187774 -0.02051287 2.94596319 0 0 Z " fill="#4A9FDC" transform="translate(101,196)"/>
<path d="M0 0 C0.33 0 0.66 0 1 0 C1 8.91 1 17.82 1 27 C-0.98 28.051875 -2.96 29.10375 -5 30.1875 C-8.99540995 32.31535432 -12.90046254 34.51497542 -16.6875 37 C-17.780625 37.66 -18.87375 38.32 -20 39 C-20.66 38.67 -21.32 38.34 -22 38 C-21.97720039 34.08204381 -21.89989315 30.16700591 -21.8125 26.25 C-21.80669922 25.13882813 -21.80089844 24.02765625 -21.79492188 22.8828125 C-21.57227376 14.66957076 -21.57227376 14.66957076 -18.86328125 11.5 C-17.91839844 11.005 -16.97351563 10.51 -16 10 C-14.93523437 9.29359375 -13.87046875 8.5871875 -12.7734375 7.859375 C-11.65195313 7.16328125 -10.53046875 6.4671875 -9.375 5.75 C-8.80265625 5.38648438 -8.2303125 5.02296875 -7.640625 4.6484375 C-4.86206124 2.92960504 -3.33058458 2 0 2 C0 1.34 0 0.68 0 0 Z " fill="#CD9A44" transform="translate(144,169)"/>
<path d="M0 0 C3.83657988 1.9782779 7.56448739 4.09170873 11.28735352 6.27612305 C12.07561523 6.72729492 12.86387695 7.1784668 13.67602539 7.64331055 C14.42045898 8.07901367 15.16489258 8.5147168 15.93188477 8.96362305 C16.61226807 9.35936523 17.29265137 9.75510742 17.99365234 10.1628418 C18.48244873 10.53022461 18.97124512 10.89760742 19.47485352 11.27612305 C19.47485352 11.93612305 19.47485352 12.59612305 19.47485352 13.27612305 C18.42297852 13.83879883 18.42297852 13.83879883 17.34985352 14.4128418 C12.15241306 17.21635248 7.12233196 20.03663968 2.32641602 23.4909668 C-0.32746936 24.61634857 -1.79507492 24.11803135 -4.52514648 23.27612305 C-6.34859711 22.40205011 -8.14027936 21.45953639 -9.90014648 20.46362305 C-10.85276367 19.92866211 -11.80538086 19.39370117 -12.78686523 18.8425293 C-13.69049805 18.32561523 -14.59413086 17.80870117 -15.52514648 17.27612305 C-16.2740918 16.85202148 -17.02303711 16.42791992 -17.79467773 15.9909668 C-19.37536071 15.0927783 -20.95096157 14.18565211 -22.52514648 13.27612305 C-20.90595777 8.41855692 -16.55569319 6.95062699 -12.27514648 4.46362305 C-11.4153418 3.93575195 -10.55553711 3.40788086 -9.66967773 2.86401367 C-8.41477539 2.13021484 -8.41477539 2.13021484 -7.13452148 1.3815918 C-6.37107422 0.92937256 -5.60762695 0.47715332 -4.82104492 0.01123047 C-2.52514648 -0.72387695 -2.52514648 -0.72387695 0 0 Z " fill="#F4CC45" transform="translate(124.525146484375,157.723876953125)"/>
<path d="M0 0 C3.00513131 1.46760533 5.86462517 3.18588339 8.75 4.875 C9.54277344 5.32230469 10.33554688 5.76960937 11.15234375 6.23046875 C12.27576172 6.88595703 12.27576172 6.88595703 13.421875 7.5546875 C14.10862305 7.95155762 14.79537109 8.34842773 15.50292969 8.75732422 C15.99696289 9.16740723 16.49099609 9.57749023 17 10 C17 10.99 17 11.98 17 13 C11.94822967 17.8508016 4.71271072 22.05653547 -2 24 C-7.5558598 23.7445291 -11.73228225 20.24973003 -16 17 C-17.61708583 16.04891396 -19.24072677 15.10873953 -20.875 14.1875 C-21.90625 13.465625 -22.9375 12.74375 -24 12 C-24 11.34 -24 10.68 -24 10 C-23.31035156 9.62488281 -22.62070313 9.24976563 -21.91015625 8.86328125 C-20.97042969 8.35152344 -20.03070313 7.83976563 -19.0625 7.3125 C-18.0621875 6.77109375 -17.061875 6.2296875 -16.03125 5.671875 C-14.13962184 4.62855431 -12.26162 3.55964085 -10.40625 2.453125 C-9.6328125 1.99421875 -8.859375 1.5353125 -8.0625 1.0625 C-7.02802734 0.43021484 -7.02802734 0.43021484 -5.97265625 -0.21484375 C-3.47179568 -1.21023578 -2.5364796 -0.81472688 0 0 Z " fill="#D13B33" transform="translate(148,146)"/>
<path d="M0 0 C3.06303578 -0.08115993 6.12390815 -0.14057409 9.1875 -0.1875 C10.48397461 -0.22520508 10.48397461 -0.22520508 11.80664062 -0.26367188 C16.72579386 -0.32021387 20.00304609 -0.2053242 24 3 C26 5 26 5 26.5 8.3125 C25.97908992 12.15421181 25.86508303 12.59840473 23.125 14.9375 C20 17 20 17 18 17 C18.87783651 18.94572009 19.7780514 20.88135349 20.6875 22.8125 C21.18636719 23.89144531 21.68523437 24.97039062 22.19921875 26.08203125 C24.15837825 29.2566346 25.77766576 30.25982972 29 32 C29 32.66 29 33.32 29 34 C26.03 34 23.06 34 20 34 C18.82845707 31.71070947 17.66261926 29.41881638 16.5 27.125 C16.16613281 26.47402344 15.83226562 25.82304687 15.48828125 25.15234375 C13 20.2265625 13 20.2265625 13 18 C11.68 18 10.36 18 9 18 C9 22.62 9 27.24 9 32 C10.32 32 11.64 32 13 32 C13 32.66 13 33.32 13 34 C8.71 34 4.42 34 0 34 C0 33.34 0 32.68 0 32 C0.99 31.67 1.98 31.34 3 31 C3.33 21.43 3.66 11.86 4 2 C2.68 1.34 1.36 0.68 0 0 Z " fill="#284265" transform="translate(440,199)"/>
<path d="M0 0 C3.3 1.65 6.6 3.3 10 5 C11.11632812 5.37640625 12.23265625 5.7528125 13.3828125 6.140625 C17.10606328 7.64689739 18.68742403 8.64525758 21 12 C22.41787197 20.2126279 21.66057415 28.73589405 21 37 C17.86763854 35.79652627 14.92754074 34.49534839 12.01171875 32.8359375 C11.37451904 32.4754834 10.73731934 32.1150293 10.08081055 31.74365234 C9.29101807 31.29199707 8.50122559 30.8403418 7.6875 30.375 C5.150625 28.93125 2.61375 27.4875 0 26 C0 17.42 0 8.84 0 0 Z " fill="#98B44A" transform="translate(80,158)"/>
<path d="M0 0 C3.3 0 6.6 0 10 0 C13.035957 8.32077103 16.02792076 16.65625296 19 25 C20.52573143 22.06727111 21.77657084 19.1071352 22.9453125 16.015625 C23.29980469 15.08105469 23.65429688 14.14648438 24.01953125 13.18359375 C24.38433594 12.21550781 24.74914062 11.24742188 25.125 10.25 C25.49753906 9.26644531 25.87007812 8.28289062 26.25390625 7.26953125 C27.1711507 4.84706513 28.08582521 2.4236262 29 0 C32.63 0 36.26 0 40 0 C40 0.66 40 1.32 40 2 C38.68 2.33 37.36 2.66 36 3 C36 12.9 36 22.8 36 33 C36.99 33.33 37.98 33.66 39 34 C34.71 34 30.42 34 26 34 C27.98 33.505 27.98 33.505 30 33 C29.505 20.625 29.505 20.625 29 8 C28.01 11.3 27.02 14.6 26 18 C25.16403271 20.14065613 24.29523201 22.26919302 23.375 24.375 C21.98438333 27.56920436 20.72766148 30.58807616 20 34 C19.01 34 18.02 34 17 34 C16.76812988 33.3294458 16.53625977 32.6588916 16.29736328 31.96801758 C15.24114389 28.91574939 14.18309024 25.86412012 13.125 22.8125 C12.76019531 21.75740234 12.39539063 20.70230469 12.01953125 19.61523438 C11.66503906 18.59365234 11.31054688 17.57207031 10.9453125 16.51953125 C10.62062988 15.58214111 10.29594727 14.64475098 9.96142578 13.67895508 C9.03321765 11.09255898 8.03714092 8.54442549 7 6 C6.91285684 9.91652632 6.85956015 13.83280311 6.8125 17.75 C6.78736328 18.86117187 6.76222656 19.97234375 6.73632812 21.1171875 C6.72666016 22.18710938 6.71699219 23.25703125 6.70703125 24.359375 C6.6913208 25.34389648 6.67561035 26.32841797 6.65942383 27.34277344 C6.83804518 30.46937661 6.83804518 30.46937661 10 34 C6.7 34 3.4 34 0 34 C0.99 32.68 1.98 31.36 3 30 C3.41222764 27.00236603 3.41222764 27.00236603 3.29296875 23.703125 C3.28330078 22.49785156 3.27363281 21.29257813 3.26367188 20.05078125 C3.23853516 18.79652344 3.21339844 17.54226562 3.1875 16.25 C3.17396484 14.98027344 3.16042969 13.71054688 3.14648438 12.40234375 C3.1111324 9.26780156 3.06178248 6.13411455 3 3 C2.01 2.67 1.02 2.34 0 2 C0 1.34 0 0.68 0 0 Z " fill="#395172" transform="translate(229,115)"/>
<path d="M0 0 C3.03377045 -0.39357022 5.0623173 -0.62945621 8 0 C10.62211164 2.10910612 12.33632473 4.71211521 14.1875 7.5 C14.9290332 8.54414063 14.9290332 8.54414063 15.68554688 9.609375 C18.98138015 14.29909823 21.95641366 19.13026185 25 24 C25 17.07 25 10.14 25 3 C23.68 2.67 22.36 2.34 21 2 C21 1.34 21 0.68 21 0 C24.96 0 28.92 0 33 0 C33 0.66 33 1.32 33 2 C32.01 2 31.02 2 30 2 C29.67 12.89 29.34 23.78 29 35 C25.05097995 33.02548998 24.21545092 32.32317638 21.90625 28.859375 C21.35066406 28.03566406 20.79507812 27.21195313 20.22265625 26.36328125 C19.65417969 25.50089844 19.08570313 24.63851562 18.5 23.75 C17.93152344 22.90308594 17.36304688 22.05617187 16.77734375 21.18359375 C15.17612121 18.7947629 13.58654001 16.39859799 12 14 C11.19847388 12.79650371 10.39648549 11.59331497 9.59375 10.390625 C9.0678125 9.60171875 8.541875 8.8128125 8 8 C7.91318524 11.62484999 7.85967279 15.24943443 7.8125 18.875 C7.78736328 19.90753906 7.76222656 20.94007813 7.73632812 22.00390625 C7.72666016 22.99003906 7.71699219 23.97617188 7.70703125 24.9921875 C7.6913208 25.90339355 7.67561035 26.81459961 7.65942383 27.75341797 C7.77181396 28.49479004 7.8842041 29.23616211 8 30 C8.99 30.66 9.98 31.32 11 32 C11 32.66 11 33.32 11 34 C7.37 34 3.74 34 0 34 C0 33.34 0 32.68 0 32 C0.99 31.67 1.98 31.34 3 31 C3.33 21.76 3.66 12.52 4 3 C2.68 2.67 1.36 2.34 0 2 C0 1.34 0 0.68 0 0 Z " fill="#4A617E" transform="translate(452,157)"/>
<path d="M0 0 C1.32 0 2.64 0 4 0 C4.43082886 1.33961792 4.43082886 1.33961792 4.87036133 2.70629883 C5.94219725 6.02417417 7.02214071 9.33917819 8.10766602 12.65258789 C8.5754556 14.0860948 9.04000576 15.5206631 9.5012207 16.95629883 C10.16545585 19.0219343 10.84131929 21.08344891 11.51953125 23.14453125 C11.92276611 24.38565674 12.32600098 25.62678223 12.74145508 26.90551758 C13.90812389 29.77409705 14.75475185 31.00254834 17 33 C17 33.66 17 34.32 17 35 C13.04 35 9.08 35 5 35 C5 34.34 5 33.68 5 33 C6.32 33 7.64 33 9 33 C8.01 30.03 7.02 27.06 6 24 C2.04 23.67 -1.92 23.34 -6 23 C-6.33 26.3 -6.66 29.6 -7 33 C-6.01 33 -5.02 33 -4 33 C-4 33.66 -4 34.32 -4 35 C-7.3 35 -10.6 35 -14 35 C-14 34.34 -14 33.68 -14 33 C-13.01 32.34 -12.02 31.68 -11 31 C-9.66649369 27.93878983 -9.66649369 27.93878983 -8.5546875 24.27734375 C-8.2316716 23.28632408 -8.2316716 23.28632408 -7.90213013 22.27528381 C-7.216421 20.16576787 -6.54516425 18.05200031 -5.875 15.9375 C-5.19511624 13.82036019 -4.51228193 11.70422365 -3.82644653 9.58900452 C-3.20660718 7.67305368 -2.59505657 5.75442728 -1.98388672 3.83569336 C-1 1 -1 1 0 0 Z " fill="#334C6D" transform="translate(358,198)"/>
<path d="M0 0 C3.27885068 -0.64405996 4.86871025 -0.93455303 8 0 C11.26213131 3.25574749 13.54286167 7.11982625 16 11 C17.20610137 12.76619699 18.42957682 14.51912497 19.65844727 16.26953125 C21.45368676 18.83611932 23.22437891 21.4198006 25 24 C25 17.07 25 10.14 25 3 C23.68 2.67 22.36 2.34 21 2 C21 1.34 21 0.68 21 0 C24.96 0 28.92 0 33 0 C33 0.66 33 1.32 33 2 C32.01 2.33 31.02 2.66 30 3 C28.55037817 5.89924366 28.77873519 8.52300355 28.68359375 11.7578125 C28.66281265 12.42086395 28.64203156 13.08391541 28.62062073 13.76705933 C28.55520769 15.88626694 28.49627895 18.005599 28.4375 20.125 C28.39430691 21.56121081 28.35069236 22.99740902 28.30664062 24.43359375 C28.19953501 27.95559594 28.09824425 31.47773825 28 35 C27.34 35 26.68 35 26 35 C24.66015625 33.12109375 24.66015625 33.12109375 23.0625 30.4375 C18.46667747 22.9790253 13.23658128 16.01682953 8 9 C7.9131671 12.458176 7.85966718 15.91607344 7.8125 19.375 C7.78736328 20.35984375 7.76222656 21.3446875 7.73632812 22.359375 C7.72666016 23.30039063 7.71699219 24.24140625 7.70703125 25.2109375 C7.6913208 26.08024902 7.67561035 26.94956055 7.65942383 27.84521484 C7.77181396 28.55629395 7.8842041 29.26737305 8 30 C8.99 30.66 9.98 31.32 11 32 C11 32.66 11 33.32 11 34 C7.37 34 3.74 34 0 34 C0 33.34 0 32.68 0 32 C0.99 31.34 1.98 30.68 3 30 C3.41764382 27.18725248 3.41764382 27.18725248 3.29296875 23.8984375 C3.28330078 22.68671875 3.27363281 21.475 3.26367188 20.2265625 C3.23853516 18.95554688 3.21339844 17.68453125 3.1875 16.375 C3.17396484 15.09625 3.16042969 13.8175 3.14648438 12.5 C3.11103196 9.33291718 3.06161441 6.16666459 3 3 C2.01 2.67 1.02 2.34 0 2 C0 1.34 0 0.68 0 0 Z " fill="#3E5776" transform="translate(247,157)"/>
<path d="M0 0 C0.99 0.33 1.98 0.66 3 1 C3.94000693 3.41066294 4.68768316 5.70423541 5.375 8.1875 C5.80076279 9.64269698 6.22920685 11.09711182 6.66015625 12.55078125 C6.87816895 13.29021973 7.09618164 14.0296582 7.32080078 14.79150391 C8.72568757 19.35965845 10.42345714 23.82398575 12.08203125 28.3046875 C13 31 13 31 13 33 C13.99 33 14.98 33 16 33 C16 33.66 16 34.32 16 35 C12.04 35 8.08 35 4 35 C4 34.34 4 33.68 4 33 C4.99 33 5.98 33 7 33 C6.34 29.7 5.68 26.4 5 23 C1.04 23 -2.92 23 -7 23 C-7.33 25.97 -7.66 28.94 -8 32 C-7.01 32.33 -6.02 32.66 -5 33 C-5 33.66 -5 34.32 -5 35 C-8.3 35 -11.6 35 -15 35 C-15 34.34 -15 33.68 -15 33 C-14.55470947 32.59990723 -14.10941895 32.19981445 -13.65063477 31.78759766 C-11.31945054 29.26298134 -10.65580617 26.65460411 -9.58984375 23.3984375 C-9.37687149 22.76136871 -9.16389923 22.12429993 -8.94447327 21.46792603 C-8.26696917 19.43965659 -7.60109001 17.40786075 -6.9375 15.375 C-6.26981103 13.33519939 -5.59950432 11.29648603 -4.91981506 9.26065063 C-4.30502682 7.41887034 -3.70096264 5.57352077 -3.09741211 3.72802734 C-2 1 -2 1 0 0 Z " fill="#2E486A" transform="translate(357,156)"/>
<path d="M0 0 C1.32 0 2.64 0 4 0 C4.32274902 0.95890137 4.64549805 1.91780273 4.97802734 2.90576172 C6.17601377 6.45987654 7.38174448 10.01132298 8.58984375 13.56201172 C9.11182186 15.09970471 9.63169152 16.63811509 10.14941406 18.17724609 C10.89356356 20.38831098 11.64523547 22.59669254 12.3984375 24.8046875 C12.6287265 25.49432587 12.8590155 26.18396423 13.09628296 26.89450073 C14.09891702 29.81256823 14.78843844 31.78843844 17 34 C13.04 34 9.08 34 5 34 C5.99 33.34 6.98 32.68 8 32 C7.43260132 27.87026372 7.43260132 27.87026372 6 24 C3.1840151 23.53101037 3.1840151 23.53101037 -0.0625 23.375 C-1.16722656 23.30023438 -2.27195313 23.22546875 -3.41015625 23.1484375 C-4.26480469 23.09945312 -5.11945313 23.05046875 -6 23 C-6.05399736 24.45792884 -6.09279177 25.91642712 -6.125 27.375 C-6.15980469 28.59316406 -6.15980469 28.59316406 -6.1953125 29.8359375 C-6.21370051 32.21342243 -6.21370051 32.21342243 -4 34 C-7.3 34 -10.6 34 -14 34 C-13.01 33.01 -12.02 32.02 -11 31 C-9.68245359 28.03628066 -9.68245359 28.03628066 -8.5625 24.625 C-8.13453125 23.38234375 -7.7065625 22.1396875 -7.265625 20.859375 C-5.71302324 16.18269311 -4.28012097 11.47088092 -2.89453125 6.7421875 C-2.10998415 4.33715665 -1.20446483 2.21791322 0 0 Z " fill="#2C4769" transform="translate(210,115)"/>
<path d="M0 0 C3.18195988 -0.64937957 5.83298393 -0.79429985 9 0 C11.99663738 2.87988527 13.86234127 6.46059783 16 10 C17.77208757 12.57115774 19.60555586 15.0963009 21.4375 17.625 C22.943125 19.72875 24.44875 21.8325 26 24 C26 17.4 26 10.8 26 4 C24.68 3.34 23.36 2.68 22 2 C22 1.34 22 0.68 22 0 C25.96 0 29.92 0 34 0 C34 0.66 34 1.32 34 2 C32.02 2.99 32.02 2.99 30 4 C29.67 14.23 29.34 24.46 29 35 C28.34 35 27.68 35 27 35 C25.67480469 33.39868164 25.67480469 33.39868164 24.171875 31.16015625 C23.61886719 30.34353516 23.06585938 29.52691406 22.49609375 28.68554688 C21.63177734 27.38713867 21.63177734 27.38713867 20.75 26.0625 C20.18925781 25.23169922 19.62851563 24.40089844 19.05078125 23.54492188 C17.35933978 21.03510398 15.67816579 18.5187105 14 16 C13.41927734 15.12972168 12.83855469 14.25944336 12.24023438 13.36279297 C10.82587077 11.24249406 9.41245575 9.12157012 8 7 C7.97106068 10.62498334 7.95322208 14.24993713 7.9375 17.875 C7.92912109 18.90753906 7.92074219 19.94007813 7.91210938 21.00390625 C7.90888672 21.99003906 7.90566406 22.97617188 7.90234375 23.9921875 C7.89448853 25.35899658 7.89448853 25.35899658 7.88647461 26.75341797 C7.85114435 29.03687509 7.85114435 29.03687509 9 31 C9.99 31.33 10.98 31.66 12 32 C12 32.66 12 33.32 12 34 C8.04 34 4.08 34 0 34 C0 33.34 0 32.68 0 32 C1.32 31.34 2.64 30.68 4 30 C4.33 21.09 4.66 12.18 5 3 C3.35 2.67 1.7 2.34 0 2 C0 1.34 0 0.68 0 0 Z " fill="#354E6F" transform="translate(212,157)"/>
<path d="M0 0 C3.14643143 -0.55172495 5.86660686 -0.69071786 9 0 C11.91455751 2.44417718 13.78864847 5.42944495 15.8125 8.625 C16.35841797 9.43324219 16.90433594 10.24148437 17.46679688 11.07421875 C19.00715936 13.36520528 20.50399672 15.67989625 22 18 C23.98 20.97 23.98 20.97 26 24 C26 17.4 26 10.8 26 4 C24.68 3.34 23.36 2.68 22 2 C22 1.34 22 0.68 22 0 C25.96 0 29.92 0 34 0 C34 0.66 34 1.32 34 2 C32.02 2.99 32.02 2.99 30 4 C29.67 13.9 29.34 23.8 29 34 C24.5 31.75 24.5 31.75 22.4140625 28.62109375 C21.95773438 27.94626953 21.50140625 27.27144531 21.03125 26.57617188 C20.5671875 25.87041016 20.103125 25.16464844 19.625 24.4375 C19.16867188 23.75880859 18.71234375 23.08011719 18.2421875 22.38085938 C16.81889192 20.25990908 15.40901264 18.130461 14 16 C12.8834087 14.32382144 11.7662308 12.64803347 10.6484375 10.97265625 C9.765625 9.6484375 8.8828125 8.32421875 8 7 C7.97106068 10.62498334 7.95322208 14.24993713 7.9375 17.875 C7.92912109 18.90753906 7.92074219 19.94007813 7.91210938 21.00390625 C7.90888672 21.99003906 7.90566406 22.97617188 7.90234375 23.9921875 C7.89448853 25.35899658 7.89448853 25.35899658 7.88647461 26.75341797 C7.85114435 29.03687509 7.85114435 29.03687509 9 31 C9.99 31.33 10.98 31.66 12 32 C12 32.66 12 33.32 12 34 C8.04 34 4.08 34 0 34 C0 33.34 0 32.68 0 32 C0.99 31.67 1.98 31.34 3 31 C4.35700647 28.28598706 4.1123861 26.15153684 4.09765625 23.1171875 C4.09443359 21.95058594 4.09121094 20.78398437 4.08789062 19.58203125 C4.07951172 18.35871094 4.07113281 17.13539063 4.0625 15.875 C4.05798828 14.64394531 4.05347656 13.41289062 4.04882812 12.14453125 C4.0370133 9.09630608 4.02054028 6.04817686 4 3 C2.68 2.34 1.36 1.68 0 1 C0 0.67 0 0.34 0 0 Z " fill="#2A4467" transform="translate(212,199)"/>
<path d="M0 0 C4.75529797 2.24479384 7.73543984 5.2377632 10 10 C10.3984375 13.59375 10.3984375 13.59375 10.375 17.5 C10.38273437 18.7890625 10.39046875 20.078125 10.3984375 21.40625 C9.71795384 27.54394578 6.5264611 31.04456967 1.89453125 34.828125 C-1.19962239 36.74203447 -3.47851269 36.57624338 -7 36 C-12.29210308 34.37996845 -15.02123267 31.24634045 -17.859375 26.66796875 C-20.17184895 21.25899715 -20.12399614 15.42818824 -18.296875 9.85546875 C-14.34607137 2.17149051 -8.49867622 -1.84753831 0 0 Z M-10.6953125 4.43359375 C-13.8609524 8.5147302 -13.70610524 12.50874759 -13.5625 17.5 C-13.57345703 18.32886719 -13.58441406 19.15773437 -13.59570312 20.01171875 C-13.5240345 26.02232769 -12.33662653 29.66337347 -8 34 C-2.99071653 34.51091473 -2.99071653 34.51091473 1.3125 32.25 C4.90824982 27.45566691 5.36478579 23.56966872 5.375 17.625 C5.39949219 16.8825 5.42398437 16.14 5.44921875 15.375 C5.47701808 10.13019282 4.46256407 7.15765129 1 3 C-3.48984642 0.75507679 -7.01505073 1.11069073 -10.6953125 4.43359375 Z " fill="#3B5373" transform="translate(425,198)"/>
<path d="M0 0 C4.07504445 2.51127503 7.31447962 5.4522752 9 10 C9.30078125 13.27734375 9.30078125 13.27734375 9.3125 16.9375 C9.33763672 18.74541016 9.33763672 18.74541016 9.36328125 20.58984375 C8.89905966 24.94753675 7.5288512 27.45947818 4.46484375 30.546875 C0.24994467 33.86705126 -2.25350283 35.52460947 -7.765625 35.484375 C-12.67965515 34.41909574 -16.49741978 30.27842229 -19.1953125 26.1875 C-21.29207851 20.48755356 -21.32830029 12.9453615 -18.83203125 7.41015625 C-13.77813407 0.43343958 -8.52777911 -2.65308683 0 0 Z M-14 6 C-15.28419367 9.57166365 -15.16741809 13.1741495 -15.1875 16.9375 C-15.20167969 18.14277344 -15.21585937 19.34804687 -15.23046875 20.58984375 C-14.93432012 24.97183965 -13.88464225 27.78771248 -11.3125 31.3125 C-9.00190973 33.26515817 -9.00190973 33.26515817 -5.5625 33.5625 C-1.05532242 32.85084038 0.30971328 31.63979968 3 28 C5.05323755 21.52440466 5.21735043 12.2713378 2.75 5.875 C0.63137876 2.37918269 0.63137876 2.37918269 -3 1 C-8.53264063 0.17598969 -10.57605192 1.69560813 -14 6 Z " fill="#354F6F" transform="translate(303,157)"/>
<path d="M0 0 C4.57524304 2.44471141 7.40335708 6.12136886 9 11 C9.87955303 17.92892333 9.74183103 23.64543728 5.48046875 29.375 C2.0960055 33.08987259 -0.95944718 35.1927663 -6 35.5 C-10.27816695 35.2387379 -12.79223019 33.91615437 -16 31 C-20.65323907 24.98836194 -20.8388795 18.34278478 -20 11 C-18.26384225 5.69507354 -15.3547618 3.24290772 -11 0 C-7.47520493 -1.76239753 -3.73340882 -0.91135401 0 0 Z M-11.8125 3.875 C-16.31481045 10.30687207 -15.5636116 17.39500077 -15 25 C-14.02107804 28.06203078 -13.07854982 29.49351345 -11 32 C-7.82121306 33.58939347 -5.5043228 33.41576711 -2 33 C1.0347762 30.55982372 2.76881522 27.69355434 4 24 C4.17241708 21.56637528 4.26665768 19.12679404 4.3125 16.6875 C4.34988281 15.39199219 4.38726562 14.09648437 4.42578125 12.76171875 C3.93349234 8.41241402 2.75254341 6.35760701 0 3 C-4.57337788 -0.04891858 -8.15663317 -0.46965334 -11.8125 3.875 Z " fill="#2C4769" transform="translate(440,157)"/>
<path d="M0 0 C4.29 0 8.58 0 13 0 C12.01 0.66 11.02 1.32 10 2 C9.54962447 4.6636456 9.54962447 4.6636456 9.63671875 7.77734375 C9.63768555 9.50694336 9.63768555 9.50694336 9.63867188 11.27148438 C9.65478516 12.48126953 9.67089844 13.69105469 9.6875 14.9375 C9.68427734 16.14341797 9.68105469 17.34933594 9.67773438 18.59179688 C9.46839601 25.1692958 9.46839601 25.1692958 12 31 C14.32414204 31.55358788 14.32414204 31.55358788 16.9375 31.5 C17.81277344 31.5309375 18.68804687 31.561875 19.58984375 31.59375 C22.12700375 31.19386362 22.12700375 31.19386362 23.79296875 29.16015625 C25.59794654 24.43450243 25.43379884 19.951734 25.375 14.9375 C25.38660156 13.94427734 25.39820313 12.95105469 25.41015625 11.92773438 C25.40435547 10.49204102 25.40435547 10.49204102 25.3984375 9.02734375 C25.39505371 8.15843506 25.39166992 7.28952637 25.38818359 6.39428711 C25.10918897 3.50081459 25.10918897 3.50081459 22 0 C25.3 0 28.6 0 32 0 C32 0.66 32 1.32 32 2 C31.01 2.66 30.02 3.32 29 4 C28.55642075 6.32023418 28.55642075 6.32023418 28.62890625 9.015625 C28.61150391 10.01980469 28.59410156 11.02398437 28.57617188 12.05859375 C28.56712428 14.17055996 28.56185867 16.28254607 28.56054688 18.39453125 C28.44635822 24.56071883 28.19500675 28.34057327 24 33 C19.7567553 35.8288298 15.98265471 35.65268001 11 35 C7.35558347 32.87409036 5.55744998 30.86832648 4 27 C3.72875977 24.28271484 3.72875977 24.28271484 3.69140625 21.2109375 C3.66626953 20.10492188 3.64113281 18.99890625 3.61523438 17.859375 C3.57996076 15.52870326 3.54873736 13.19796683 3.52148438 10.8671875 C3.49505859 9.76375 3.46863281 8.6603125 3.44140625 7.5234375 C3.42795166 6.51200684 3.41449707 5.50057617 3.40063477 4.45849609 C3.26842529 3.64719238 3.13621582 2.83588867 3 2 C2.01 1.34 1.02 0.68 0 0 Z " fill="#324C6D" transform="translate(279,199)"/>
<path d="M0 0 C4.10379698 -0.14489234 8.20693967 -0.23393542 12.3125 -0.3125 C13.47974609 -0.35439453 14.64699219 -0.39628906 15.84960938 -0.43945312 C16.96787109 -0.45556641 18.08613281 -0.47167969 19.23828125 -0.48828125 C20.7857605 -0.52755737 20.7857605 -0.52755737 22.36450195 -0.56762695 C25 0 25 0 26.86010742 2.28051758 C28 5 28 5 28 9 C25 8 25 8 22.625 5.5 C19.81980641 2.82838706 18.68754979 2.54264947 15 2 C15.06877071 6.236428 15.15668121 10.4718913 15.26245117 14.70751953 C15.29573178 16.14881342 15.32375404 17.59023863 15.34643555 19.03173828 C15.3799262 21.10245797 15.432233 23.17197093 15.48828125 25.2421875 C15.51446533 26.4885498 15.54064941 27.73491211 15.56762695 29.01904297 C15.71031006 30.00275879 15.85299316 30.98647461 16 32 C16.99 32.66 17.98 33.32 19 34 C14.71 34 10.42 34 6 34 C6.99 33.34 7.98 32.68 9 32 C9.51220541 28.89786275 9.51220541 28.89786275 9.51171875 25.2421875 C9.52966995 24.57913605 9.54762115 23.91608459 9.56611633 23.23294067 C9.62032924 21.11369197 9.65414771 18.99466975 9.6875 16.875 C9.72066367 15.43877048 9.75515245 14.0025709 9.79101562 12.56640625 C9.87605964 9.04448871 9.94281873 5.52249241 10 2 C4.99586312 3.47912333 2.59113676 5.20935565 -1 9 C-1.66 9 -2.32 9 -3 9 C-2.01 6.03 -1.02 3.06 0 0 Z " fill="#2F496B" transform="translate(289,115)"/>
<path d="M0 0 C1.084021 0.00523682 2.16804199 0.01047363 3.28491211 0.01586914 C5.03964844 0.02070313 5.03964844 0.02070313 6.82983398 0.02563477 C8.67738281 0.03820312 8.67738281 0.03820312 10.56225586 0.05102539 C12.41560547 0.05779297 12.41560547 0.05779297 14.30639648 0.06469727 C17.37089703 0.07652931 20.43530307 0.09301366 23.49975586 0.11352539 C24.15975586 3.08352539 24.81975586 6.05352539 25.49975586 9.11352539 C24.83975586 9.11352539 24.17975586 9.11352539 23.49975586 9.11352539 C22.94288086 8.32977539 22.38600586 7.54602539 21.81225586 6.73852539 C18.94056439 3.47876751 16.63932964 3.14480454 12.49975586 2.11352539 C12.56864158 6.18920052 12.65660985 10.2639734 12.76220703 14.33886719 C12.79544135 15.72481916 12.82347812 17.110906 12.84619141 18.49707031 C12.87976203 20.49059382 12.93363586 22.4837428 12.98803711 24.47680664 C13.01422119 25.6760376 13.04040527 26.87526855 13.06738281 28.11083984 C13.2430168 31.45589367 13.2430168 31.45589367 16.49975586 34.11352539 C12.20975586 34.11352539 7.91975586 34.11352539 3.49975586 34.11352539 C3.49975586 33.45352539 3.49975586 32.79352539 3.49975586 32.11352539 C4.81975586 32.11352539 6.13975586 32.11352539 7.49975586 32.11352539 C7.49975586 22.21352539 7.49975586 12.31352539 7.49975586 2.11352539 C0.76370422 3.66204504 0.76370422 3.66204504 -2.50024414 8.11352539 C-3.16024414 8.11352539 -3.82024414 8.11352539 -4.50024414 8.11352539 C-3.48776914 0.15836468 -3.48776914 0.15836468 0 0 Z " fill="#233E62" transform="translate(375.500244140625,156.886474609375)"/>
<path d="M0 0 C1.93166016 0.01740234 1.93166016 0.01740234 3.90234375 0.03515625 C5.19269531 0.04417969 6.48304688 0.05320313 7.8125 0.0625 C8.81152344 0.07410156 9.81054688 0.08570313 10.83984375 0.09765625 C11.82984375 3.06765625 12.81984375 6.03765625 13.83984375 9.09765625 C11.83984375 9.09765625 11.83984375 9.09765625 9.33984375 6.66015625 C8.10234375 5.39171875 8.10234375 5.39171875 6.83984375 4.09765625 C3.79000379 2.57273627 1.19750685 2.86203077 -2.16015625 3.09765625 C-5.5080398 5.17565294 -6.25175395 8.39416994 -7.16015625 12.09765625 C-7.80766196 18.68063099 -6.42748183 23.35002512 -3.16015625 29.09765625 C-1.17782112 31.50298696 -1.17782112 31.50298696 2.65234375 31.47265625 C6.82431233 31.38163148 8.89847313 30.12815931 11.83984375 27.09765625 C12.16984375 26.43765625 12.49984375 25.77765625 12.83984375 25.09765625 C13.49984375 25.09765625 14.15984375 25.09765625 14.83984375 25.09765625 C13.41606534 29.62786028 11.78701946 32.38881018 7.83984375 35.09765625 C2.92878181 35.94243456 -2.71167944 36.7198355 -7.046875 33.84765625 C-8.34765625 32.28515625 -8.34765625 32.28515625 -10.16015625 29.09765625 C-10.82015625 28.10765625 -11.48015625 27.11765625 -12.16015625 26.09765625 C-12.4609375 22.953125 -12.4609375 22.953125 -12.47265625 19.28515625 C-12.49779297 17.48111328 -12.49779297 17.48111328 -12.5234375 15.640625 C-11.8560599 9.13189933 -8.86579698 5.43179903 -4.16015625 1.09765625 C-3.16015625 0.09765625 -3.16015625 0.09765625 0 0 Z " fill="#2B4668" transform="translate(261.16015625,197.90234375)"/>
<path d="M0 0 C4.29 0 8.58 0 13 0 C13 0.66 13 1.32 13 2 C11.68 2 10.36 2 9 2 C9.21205078 2.62567871 9.42410156 3.25135742 9.64257812 3.89599609 C10.59816837 6.72128791 11.54913818 9.54811349 12.5 12.375 C12.83386719 13.35984375 13.16773438 14.3446875 13.51171875 15.359375 C13.82753906 16.30039063 14.14335937 17.24140625 14.46875 18.2109375 C14.76201172 19.08024902 15.05527344 19.94956055 15.35742188 20.84521484 C16 23 16 23 16 25 C16.66 25 17.32 25 18 25 C18.29003906 23.78763672 18.29003906 23.78763672 18.5859375 22.55078125 C18.97652344 20.94783203 18.97652344 20.94783203 19.375 19.3125 C19.63023437 18.25675781 19.88546875 17.20101562 20.1484375 16.11328125 C20.91982856 13.29310385 21.9036228 10.7043971 23 8 C23.37593066 6.0075675 23.71979545 4.0081326 24 2 C23.01 2 22.02 2 21 2 C21 1.34 21 0.68 21 0 C24.3 0 27.6 0 31 0 C31 0.66 31 1.32 31 2 C30.01 2 29.02 2 28 2 C27.85304688 2.52464844 27.70609375 3.04929688 27.5546875 3.58984375 C25.45396779 10.84577793 22.94346449 17.93682901 20.40234375 25.046875 C19.22296597 28.3500884 18.09504155 31.66772045 17 35 C15.515 34.505 15.515 34.505 14 34 C12.75390625 31.296875 12.75390625 31.296875 11.5625 27.75 C11.34787109 27.12681885 11.13324219 26.5036377 10.91210938 25.86157227 C9.46046732 21.59225851 8.22508446 17.27737412 7 12.9375 C5.50115284 7.88810507 4.0688706 5.27770132 0 2 C0 1.34 0 0.68 0 0 Z " fill="#2F496B" transform="translate(314,157)"/>
<path d="M0 0 C3.96 0 7.92 0 12 0 C12 0.66 12 1.32 12 2 C11.01 2 10.02 2 9 2 C9.433125 2.84304687 9.86625 3.68609375 10.3125 4.5546875 C10.869375 5.65039062 11.42625 6.74609375 12 7.875 C12.556875 8.96554688 13.11375 10.05609375 13.6875 11.1796875 C15 14 15 14 15 16 C15.66 16 16.32 16 17 16 C18.92205381 11.41664092 20.45730076 6.72065967 22 2 C21.01 2 20.02 2 19 2 C19 1.34 19 0.68 19 0 C22.3 0 25.6 0 29 0 C29 0.66 29 1.32 29 2 C28.29875 2.61875 27.5975 3.2375 26.875 3.875 C20.74758186 9.87951863 17.62569999 17.63718046 17.4375 26.125 C17.40140894 29.29368775 17.40140894 29.29368775 18 32 C18.99 32.66 19.98 33.32 21 34 C16.71 34 12.42 34 8 34 C8.99 33.34 9.98 32.68 11 32 C13.12176084 21.91081069 10.02462981 14.40831101 5.04296875 5.88671875 C3.25470632 2.75618169 3.25470632 2.75618169 0 2 C0 1.34 0 0.68 0 0 Z " fill="#324C6D" transform="translate(317,115)"/>
<path d="M0 0 C0 5.61 0 11.22 0 17 C-0.33 17 -0.66 17 -1 17 C-1 12.05 -1 7.1 -1 2 C-2.711875 3.010625 -4.42375 4.02125 -6.1875 5.0625 C-11.24159711 8.04624408 -11.24159711 8.04624408 -14.5625 7.84375 C-18.69779268 6.41230253 -22.22220108 4.19901728 -26 2 C-25.67 6.95 -25.34 11.9 -25 17 C-25.66 17 -26.32 17 -27 17 C-28.43210163 5.21168192 -28.43210163 5.21168192 -27 0 C-17.37658583 -10.35111062 -10.48618648 -5.86727101 0 0 Z " fill="#B3C852" transform="translate(182,200)"/>
<path d="M0 0 C8.58 0 17.16 0 26 0 C28 5 28 5 28 8 C27.34 8 26.68 8 26 8 C25.236875 7.195625 24.47375 6.39125 23.6875 5.5625 C20.99181664 2.53492379 20.99181664 2.53492379 16 2 C16 11.57 16 21.14 16 31 C17.32 31.33 18.64 31.66 20 32 C20 32.66 20 33.32 20 34 C15.38 34 10.76 34 6 34 C6 33.34 6 32.68 6 32 C7.32 31.67 8.64 31.34 10 31 C10 21.43 10 11.86 10 2 C4.54888536 3.09022293 3.64723871 4.15561325 0 8 C-0.66 8 -1.32 8 -2 8 C-1.125 2.25 -1.125 2.25 0 0 Z " fill="#264164" transform="translate(375,199)"/>
<path d="M0 0 C0.97453125 0.54527344 1.9490625 1.09054688 2.953125 1.65234375 C3.93796875 2.20019531 4.9228125 2.74804688 5.9375 3.3125 C6.68515625 3.73402344 7.4328125 4.15554687 8.203125 4.58984375 C5.95267901 7.03441767 3.64511207 8.68887309 0.765625 10.33984375 C0.00378906 10.7884375 -0.75804688 11.23703125 -1.54296875 11.69921875 C-4.19271339 12.74625823 -5.17669736 12.59388723 -7.796875 11.58984375 C-10.98229673 10.09464579 -13.86669274 8.54329859 -16.796875 6.58984375 C-17.126875 11.20984375 -17.456875 15.82984375 -17.796875 20.58984375 C-18.126875 20.58984375 -18.456875 20.58984375 -18.796875 20.58984375 C-20.22877613 9.54564339 -20.22877613 9.54564339 -18.796875 4.58984375 C-13.07149886 -1.41826701 -7.37861587 -3.72022392 0 0 Z " fill="#D2423C" transform="translate(82.796875,195.41015625)"/>
<path d="M0 0 C3.7685949 1.83598213 7.34911316 3.93263034 11 6 C11 11.28 11 16.56 11 22 C10.67 22 10.34 22 10 22 C10 17.05 10 12.1 10 7 C8.30875 8.010625 6.6175 9.02125 4.875 10.0625 C1.59013958 12.0254044 -0.21078323 13.04026616 -4.0625 12.84375 C-6.97601438 12.00688949 -9.27114926 10.97613907 -11.875 9.4375 C-12.65617187 8.98246094 -13.43734375 8.52742188 -14.2421875 8.05859375 C-14.82226562 7.70925781 -15.40234375 7.35992187 -16 7 C-16 6.34 -16 5.68 -16 5 C-14.28133783 3.9615789 -12.54955402 2.94485365 -10.8125 1.9375 C-9.84957031 1.36902344 -8.88664062 0.80054687 -7.89453125 0.21484375 C-4.54091176 -1.19268076 -3.38885687 -1.1860999 0 0 Z " fill="#4FA1DC" transform="translate(126,116)"/>
<path d="M0 0 C0 5.28 0 10.56 0 16 C-10.75 22 -10.75 22 -13 22 C-13.58982786 16.84883665 -13.90127084 12.12866023 -13 7 C-10.08790343 3.89798408 -6.95185297 2.46412913 -3 1 C-1 0 -1 0 0 0 Z " fill="#A53A35" transform="translate(91,201)"/>
<path d="M0 0 C4.29 0 8.58 0 13 0 C13 0.66 13 1.32 13 2 C11.68 2 10.36 2 9 2 C9 11.9 9 21.8 9 32 C10.32 32 11.64 32 13 32 C13 32.66 13 33.32 13 34 C8.71 34 4.42 34 0 34 C0 33.34 0 32.68 0 32 C1.32 32 2.64 32 4 32 C4 22.1 4 12.2 4 2 C2.68 2 1.36 2 0 2 C0 1.34 0 0.68 0 0 Z " fill="#314B6C" transform="translate(403,157)"/>
<path d="M0 0 C0.58984247 5.15129092 0.89605801 9.8704703 0 15 C-3.62084227 18.92091207 -8.04117251 20.3470575 -13 22 C-14.22364574 8.4889116 -14.22364574 8.4889116 -11.32421875 4.9609375 C-9.25193733 3.72590324 -7.25647688 2.84132503 -5 2 C-2 0 -2 0 0 0 Z " fill="#3675A8" transform="translate(136,123)"/>
<path d="M0 0 C4.83450586 -0.47397116 7.97011384 -0.67972486 12.125 2.0625 C14 5 14 5 14.0625 8.625 C13 12 13 12 11.4375 13.9375 C7.8156432 15.51625809 4.93749325 15.25819628 1 15 C0 14 0 14 -0.09765625 10.83984375 C-0.08025391 8.90818359 -0.08025391 8.90818359 -0.0625 6.9375 C-0.05347656 5.64714844 -0.04445313 4.35679687 -0.03515625 3.02734375 C-0.02355469 2.02832031 -0.01195312 1.02929688 0 0 Z " fill="#F6F8F9" transform="translate(323,216)"/>
<path d="M0 0 C0.58987581 5.15158205 0.90042161 9.87081264 0 15 C-2.88971602 18.1252907 -5.98154225 19.67588523 -10 21 C-10.66 21 -11.32 21 -12 21 C-12.58987581 15.84841795 -12.90042161 11.12918736 -12 6 C-8.87209885 2.61710691 -4.73831008 0 0 0 Z " fill="#6B8F47" transform="translate(181,202)"/>
<path d="M0 0 C4.62 0 9.24 0 14 0 C14 0.66 14 1.32 14 2 C12.68 2.33 11.36 2.66 10 3 C10 12.24 10 21.48 10 31 C11.32 31.33 12.64 31.66 14 32 C14 32.66 14 33.32 14 34 C9.38 34 4.76 34 0 34 C0 33.34 0 32.68 0 32 C1.32 31.67 2.64 31.34 4 31 C4 21.76 4 12.52 4 3 C2.68 2.67 1.36 2.34 0 2 C0 1.34 0 0.68 0 0 Z " fill="#243F63" transform="translate(197,157)"/>
<path d="M0 0 C4.62 0 9.24 0 14 0 C12.68 0.99 11.36 1.98 10 3 C9.446903 5.99757582 9.446903 5.99757582 9.609375 9.41796875 C9.62226563 10.67158203 9.63515625 11.92519531 9.6484375 13.21679688 C9.69871094 15.18229492 9.69871094 15.18229492 9.75 17.1875 C9.77006693 18.5227601 9.78831738 19.85804883 9.8046875 21.19335938 C9.85190197 24.46296146 9.91774816 27.73112192 10 31 C11.32 31.33 12.64 31.66 14 32 C14 32.66 14 33.32 14 34 C9.38 34 4.76 34 0 34 C0 33.34 0 32.68 0 32 C1.32 31.67 2.64 31.34 4 31 C4.09895097 27.06745992 4.1715042 23.13540254 4.21972656 19.2019043 C4.24971281 17.20660986 4.30053786 15.21166418 4.3515625 13.21679688 C4.36445313 11.96318359 4.37734375 10.70957031 4.390625 9.41796875 C4.41157227 8.26063232 4.43251953 7.1032959 4.45410156 5.91088867 C4.26436552 2.47123498 4.26436552 2.47123498 0 0 Z " fill="#254064" transform="translate(197,199)"/>
<path d="M0 0 C4.62 0 9.24 0 14 0 C14 0.66 14 1.32 14 2 C12.68 2.33 11.36 2.66 10 3 C10 12.9 10 22.8 10 33 C10.99 33.33 11.98 33.66 13 34 C8.71 34 4.42 34 0 34 C1.32 33.01 2.64 32.02 4 31 C4.553097 28.00242418 4.553097 28.00242418 4.390625 24.58203125 C4.37128906 22.70161133 4.37128906 22.70161133 4.3515625 20.78320312 C4.31804687 19.47287109 4.28453125 18.16253906 4.25 16.8125 C4.22993307 15.4772399 4.21168262 14.14195117 4.1953125 12.80664062 C4.14809803 9.53703854 4.08225184 6.26887808 4 3 C2.68 2.67 1.36 2.34 0 2 C0 1.34 0 0.68 0 0 Z " fill="#284366" transform="translate(271,115)"/>
<path d="M0 0 C3.63 0 7.26 0 11 0 C11 0.66 11 1.32 11 2 C9.68 2.33 8.36 2.66 7 3 C7 12.9 7 22.8 7 33 C7.99 33.33 8.98 33.66 10 34 C5.71 34 1.42 34 -3 34 C-1.02 33.505 -1.02 33.505 1 33 C1.02477373 28.94320623 1.04289493 24.88644194 1.05493164 20.82958984 C1.05995118 19.45035027 1.06676819 18.07111598 1.07543945 16.69189453 C1.0876092 14.70607817 1.09271633 12.72022251 1.09765625 10.734375 C1.10289307 9.54038086 1.10812988 8.34638672 1.11352539 7.11621094 C1.10103099 3.81746698 1.10103099 3.81746698 0 0 Z " fill="#254063" transform="translate(258,115)"/>
<path d="M0 0 C4.07395078 0.39172604 5.56600957 1.23380509 8.25 4.3125 C9.07349121 10.17987487 9.07349121 10.17987487 7.01171875 13.015625 C4.72376608 14.69988284 3.37128458 14.62212107 0.5625 14.5 C-0.64986328 14.45939453 -0.64986328 14.45939453 -1.88671875 14.41796875 C-2.50160156 14.38316406 -3.11648438 14.34835938 -3.75 14.3125 C-3.77685938 12.16673363 -3.79633088 10.02087355 -3.8125 7.875 C-3.82410156 6.68003906 -3.83570313 5.48507813 -3.84765625 4.25390625 C-3.72046081 0.42277964 -3.72046081 0.42277964 0 0 Z " fill="#F5F6F8" transform="translate(452.75,199.6875)"/>
<path d="M0 0 C3.6875 0.25 3.6875 0.25 6.125 1.375 C7.6875 3.25 7.6875 3.25 8.25 6.125 C7.48972117 10.34877127 6.14320643 11.75012726 2.6875 14.25 C-1.125 14.5625 -1.125 14.5625 -4.3125 14.25 C-4.33935938 12.10423363 -4.35883088 9.95837355 -4.375 7.8125 C-4.38660156 6.61753906 -4.39820313 5.42257813 -4.41015625 4.19140625 C-4.27216869 0.03522082 -4.20775278 0.31756625 0 0 Z " fill="#EFF1F4" transform="translate(327.3125,199.75)"/>
<path d="M0 0 C0.33 0 0.66 0 1 0 C1 3.96 1 7.92 1 12 C3.97851562 11.90234375 3.97851562 11.90234375 6.95703125 11.8046875 C9 12 9 12 12 14 C11.34 14 10.68 14 10 14 C10.87783651 15.94572009 11.7780514 17.88135349 12.6875 19.8125 C13.18636719 20.89144531 13.68523437 21.97039062 14.19921875 23.08203125 C16.15837825 26.2566346 17.77766576 27.25982972 21 29 C21 29.66 21 30.32 21 31 C18.03 31 15.06 31 12 31 C10.82845707 28.71070947 9.66261926 26.41881638 8.5 24.125 C8.16613281 23.47402344 7.83226562 22.82304687 7.48828125 22.15234375 C5 17.2265625 5 17.2265625 5 15 C3.68 15 2.36 15 1 15 C1 18.96 1 22.92 1 27 C0.67 27 0.34 27 0 27 C0 18.09 0 9.18 0 0 Z " fill="#485F7D" transform="translate(448,202)"/>
<path d="M0 0 C1 2 1 2 0.57421875 3.69140625 C-0.19952966 6.80219066 -0.17041064 9.73495396 -0.1875 12.9375 C-0.20167969 14.14277344 -0.21585937 15.34804687 -0.23046875 16.58984375 C-0.00689949 19.89791092 0.60925298 22.02721361 2 25 C2.33 25.99 2.66 26.98 3 28 C5.00016466 29.20882096 5.00016466 29.20882096 7 30 C3.8206091 29.92430022 1.69110312 29.63231963 -0.69921875 27.4453125 C-5.90663252 21.36789498 -6.38808164 17.44339365 -6.36328125 9.375 C-6.01391072 6.12923508 -5.85067815 4.90314224 -3.5625 2.6875 C-2.2940625 1.8521875 -2.2940625 1.8521875 -1 1 C-0.67 0.67 -0.34 0.34 0 0 Z " fill="#304A6B" transform="translate(289,161)"/>
<path d="M0 0 C4.25491665 0.47276852 6.22542845 2.92547477 9 6 C10.49357569 8.98715138 10.22503435 12.03887936 10.25 15.3125 C10.28867187 17.28669922 10.28867187 17.28669922 10.328125 19.30078125 C9.98693503 23.14729204 9.39860812 25.01294829 7 28 C6.01 28.33 5.02 28.66 4 29 C4.02094727 28.3702124 4.04189453 27.7404248 4.06347656 27.09155273 C4.14720099 24.20703429 4.19883621 21.32277232 4.25 18.4375 C4.28351563 17.44685547 4.31703125 16.45621094 4.3515625 15.43554688 C4.43678096 9.02285814 3.74243422 5.2526685 0 0 Z " fill="#2F496B" transform="translate(425,200)"/>
<path d="M0 0 C1.084021 0.00523682 2.16804199 0.01047363 3.28491211 0.01586914 C5.03964844 0.02070313 5.03964844 0.02070313 6.82983398 0.02563477 C8.67738281 0.03820312 8.67738281 0.03820312 10.56225586 0.05102539 C12.41560547 0.05779297 12.41560547 0.05779297 14.30639648 0.06469727 C17.37089703 0.07652931 20.43530307 0.09301366 23.49975586 0.11352539 C24.15975586 3.08352539 24.81975586 6.05352539 25.49975586 9.11352539 C24.83975586 9.11352539 24.17975586 9.11352539 23.49975586 9.11352539 C23.02538086 8.35040039 22.55100586 7.58727539 22.06225586 6.80102539 C18.7854973 2.90105418 18.7854973 2.90105418 8.49975586 1.11352539 C8.49975586 11.01352539 8.49975586 20.91352539 8.49975586 31.11352539 C8.16975586 31.11352539 7.83975586 31.11352539 7.49975586 31.11352539 C7.49975586 21.54352539 7.49975586 11.97352539 7.49975586 2.11352539 C0.76370422 3.66204504 0.76370422 3.66204504 -2.50024414 8.11352539 C-3.16024414 8.11352539 -3.82024414 8.11352539 -4.50024414 8.11352539 C-3.48776914 0.15836468 -3.48776914 0.15836468 0 0 Z " fill="#4F6683" transform="translate(375.500244140625,156.886474609375)"/>
<path d="M0 0 C2.81579728 0.97096458 3.96750077 1.9558939 5.75 4.375 C7.79918632 10.31764033 8.35093148 16.61490733 5.98046875 22.5546875 C4.77304399 24.60475612 3.71920434 26.3534381 2 28 C1.01 28 0.02 28 -1 28 C-0.67386719 27.00097656 -0.34773438 26.00195312 -0.01171875 24.97265625 C1.09590358 21.08669088 1.23318455 17.48681238 1.1875 13.4375 C1.18105469 12.17808594 1.17460937 10.91867188 1.16796875 9.62109375 C1.01520163 6.32771893 0.62279235 3.2335379 0 0 Z " fill="#294466" transform="translate(442,160)"/>
<path d="M0 0 C3.3 0 6.6 0 10 0 C10 0.66 10 1.32 10 2 C9.01 2.66 8.02 3.32 7 4 C6.55642075 6.32023418 6.55642075 6.32023418 6.62890625 9.015625 C6.61150391 10.01980469 6.59410156 11.02398437 6.57617188 12.05859375 C6.56712428 14.17055996 6.56185867 16.28254607 6.56054688 18.39453125 C6.44635822 24.56071883 6.19500675 28.34057327 2 33 C-1.31371 35.20914 -2.3446021 35.22481553 -6.1875 35.125 C-7.08855469 35.10695312 -7.98960937 35.08890625 -8.91796875 35.0703125 C-9.60503906 35.04710937 -10.29210937 35.02390625 -11 35 C-9.40669878 33.11791293 -8.53763719 32.09321935 -6.0625 31.6640625 C-4.68758875 31.63802251 -3.31256904 31.61718828 -1.9375 31.6015625 C0.17165606 31.12207413 0.17165606 31.12207413 1.7265625 29.15234375 C3.63087209 24.43830131 3.43403804 19.97213298 3.375 14.9375 C3.38660156 13.94427734 3.39820313 12.95105469 3.41015625 11.92773438 C3.40628906 10.97060547 3.40242188 10.01347656 3.3984375 9.02734375 C3.39505371 8.15843506 3.39166992 7.28952637 3.38818359 6.39428711 C3.10918897 3.50081459 3.10918897 3.50081459 0 0 Z " fill="#435B79" transform="translate(301,199)"/>
<path d="M0 0 C4.10379698 -0.14489234 8.20693967 -0.23393542 12.3125 -0.3125 C13.47974609 -0.35439453 14.64699219 -0.39628906 15.84960938 -0.43945312 C16.96787109 -0.45556641 18.08613281 -0.47167969 19.23828125 -0.48828125 C20.7857605 -0.52755737 20.7857605 -0.52755737 22.36450195 -0.56762695 C25 0 25 0 26.86010742 2.28051758 C28 5 28 5 28 9 C25 8 25 8 22.9375 5.5 C18.83728849 2.01045829 15.27092583 1.85593933 10 2 C4.84239738 2.97313257 2.55249227 5.25014705 -1 9 C-1.66 9 -2.32 9 -3 9 C-2.01 6.03 -1.02 3.06 0 0 Z " fill="#516784" transform="translate(289,115)"/>
<path d="M0 0 C3.06303578 -0.08115993 6.12390815 -0.14057409 9.1875 -0.1875 C10.48397461 -0.22520508 10.48397461 -0.22520508 11.80664062 -0.26367188 C16.72579386 -0.32021387 20.00304609 -0.2053242 24 3 C26 5 26 5 26.375 8.375 C26 12 26 12 24.3125 14.4375 C21.61589191 16.25953249 20.18873549 16.35430394 17 16 C17.495 15.484375 17.99 14.96875 18.5 14.4375 C20.56021138 11.08965651 20.49125459 8.85985753 20 5 C17.56907312 2.3709976 16.2221907 2.01462456 12.6171875 1.77734375 C11.38226563 1.83019531 10.14734375 1.88304687 8.875 1.9375 C6.58511962 2.03033299 4.29081006 2.06602585 2 2 C1.34 1.34 0.68 0.68 0 0 Z " fill="#2A4568" transform="translate(440,199)"/>
<path d="M0 0 C2.31005869 2.31005869 2.72174103 3.83083657 3.625 6.9375 C3.88539063 7.81277344 4.14578125 8.68804687 4.4140625 9.58984375 C5 12 5 12 5 15 C1.7 15 -1.6 15 -5 15 C-4.54705135 13.24859857 -4.08741252 11.49892656 -3.625 9.75 C-3.36976563 8.77546875 -3.11453125 7.8009375 -2.8515625 6.796875 C-2.10401491 4.34162697 -1.22876183 2.24382595 0 0 Z " fill="#E9ECF0" transform="translate(358,204)"/>
<path d="M0 0 C3.3 0 6.6 0 10 0 C10 0.66 10 1.32 10 2 C9.01 2 8.02 2 7 2 C6.85304688 2.52464844 6.70609375 3.04929688 6.5546875 3.58984375 C4.0660261 12.18573743 1.01845906 20.57957375 -2 29 C-2.99 28.67 -3.98 28.34 -5 28 C-5 27.01 -5 26.02 -5 25 C-4.34 25 -3.68 25 -3 25 C-2.70996094 23.78763672 -2.70996094 23.78763672 -2.4140625 22.55078125 C-2.02347656 20.94783203 -2.02347656 20.94783203 -1.625 19.3125 C-1.36976563 18.25675781 -1.11453125 17.20101562 -0.8515625 16.11328125 C-0.08017144 13.29310385 0.9036228 10.7043971 2 8 C2.37593066 6.0075675 2.71979545 4.0081326 3 2 C2.01 2 1.02 2 0 2 C0 1.34 0 0.68 0 0 Z " fill="#485F7D" transform="translate(335,157)"/>
<path d="M0 0 C8.58 0 17.16 0 26 0 C28 5 28 5 28 8 C27.34 8 26.68 8 26 8 C25.236875 7.195625 24.47375 6.39125 23.6875 5.5625 C20.74244245 2.75442187 19.95037353 2.26335824 16 2 C15.22011719 1.938125 14.44023437 1.87625 13.63671875 1.8125 C9.25512671 1.60478008 6.75174285 1.53974928 2.9375 3.875 C0.96324724 5.84671163 0.96324724 5.84671163 0 8 C-0.66 8 -1.32 8 -2 8 C-1.125 2.25 -1.125 2.25 0 0 Z " fill="#354F70" transform="translate(375,199)"/>
<path d="M0 0 C2.17186421 2.17186421 2.6793248 3.49976531 3.625 6.375 C3.88539063 7.14585938 4.14578125 7.91671875 4.4140625 8.7109375 C5 11 5 11 5 15 C2.03 15 -0.94 15 -4 15 C-3.43179252 9.54520815 -2.05362055 5.08940744 0 0 Z " fill="#ECEFF2" transform="translate(210,120)"/>
<path d="M0 0 C0.66 0 1.32 0 2 0 C2.67305018 1.60149886 3.33822227 3.20631029 4 4.8125 C4.37125 5.70582031 4.7425 6.59914062 5.125 7.51953125 C6 10 6 10 6 13 C2.7 13 -0.6 13 -4 13 C-3.40895235 8.15340923 -2.02055843 4.39251833 0 0 Z " fill="#ECEFF2" transform="translate(355,164)"/>
<path d="M0 0 C1.875 0.3125 1.875 0.3125 4 1 C6 4 6 4 5.9375 7.4375 C5 11 5 11 2.8125 13.4375 C-0.41176773 15.22875985 -2.36804503 15.33785628 -6 15 C-5.195625 14.484375 -4.39125 13.96875 -3.5625 13.4375 C-0.29045407 10.32506606 -0.23727525 8.42913798 0 4 C0 2.68 0 1.36 0 0 Z " fill="#2E486A" transform="translate(336,217)"/>
<path d="M0 0 C0.33 0 0.66 0 1 0 C1 8.58 1 17.16 1 26 C1.66 26 2.32 26 3 26 C3.33 26.66 3.66 27.32 4 28 C4.99 28.33 5.98 28.66 7 29 C7 29.66 7 30.32 7 31 C3.04 31 -0.92 31 -5 31 C-5 30.34 -5 29.68 -5 29 C-4.01 28.67 -3.02 28.34 -2 28 C-0.65893595 25.3178719 -0.78549581 23.11601968 -0.68359375 20.1171875 C-0.64169922 18.95058594 -0.59980469 17.78398437 -0.55664062 16.58203125 C-0.49766602 14.74705078 -0.49766602 14.74705078 -0.4375 12.875 C-0.37272461 11.02841797 -0.37272461 11.02841797 -0.30664062 9.14453125 C-0.20031296 6.09647147 -0.09828219 3.0483281 0 0 Z " fill="#485F7D" transform="translate(217,202)"/>
<path d="M0 0 C3.3 0 6.6 0 10 0 C10 0.66 10 1.32 10 2 C9.29875 2.61875 8.5975 3.2375 7.875 3.875 C3.55897409 7.94368918 1.45789435 13.70412454 -1 19 C-1.33 18.34 -1.66 17.68 -2 17 C-2.66 16.67 -3.32 16.34 -4 16 C-3.34 16 -2.68 16 -2 16 C-0.07794619 11.41664092 1.45730076 6.72065967 3 2 C2.01 2 1.02 2 0 2 C0 1.34 0 0.68 0 0 Z " fill="#4F6682" transform="translate(336,115)"/>
<path d="M0 0 C3.96 0 7.92 0 12 0 C12 0.66 12 1.32 12 2 C11.360625 2.268125 10.72125 2.53625 10.0625 2.8125 C7.66868314 3.88667752 7.66868314 3.88667752 7 7 C6.85426942 8.47965926 6.75336732 9.96403843 6.68359375 11.44921875 C6.64169922 12.29677734 6.59980469 13.14433594 6.55664062 14.01757812 C6.51732422 14.89865234 6.47800781 15.77972656 6.4375 16.6875 C6.39431641 17.58017578 6.35113281 18.47285156 6.30664062 19.39257812 C6.20064647 21.59490108 6.09857949 23.79733473 6 26 C5.01 26 4.02 26 3 26 C3.33 25.34 3.66 24.68 4 24 C4.08372659 22.47851674 4.10730027 20.95344222 4.09765625 19.4296875 C4.09443359 18.53378906 4.09121094 17.63789063 4.08789062 16.71484375 C4.07532227 15.30912109 4.07532227 15.30912109 4.0625 13.875 C4.05798828 12.93011719 4.05347656 11.98523438 4.04882812 11.01171875 C4.03702357 8.67441613 4.02055759 6.33723939 4 4 C2.68 3.34 1.36 2.68 0 2 C0 1.34 0 0.68 0 0 Z " fill="#3E5675" transform="translate(234,199)"/>
<path d="M0 0 C0.33 0 0.66 0 1 0 C1.0093457 0.64549805 1.01869141 1.29099609 1.02832031 1.95605469 C1.08209101 4.88813944 1.1657234 7.81864008 1.25 10.75 C1.26417969 11.76578125 1.27835938 12.7815625 1.29296875 13.828125 C1.34132788 19.64465763 1.34132788 19.64465763 4.046875 24.578125 C4.69140625 25.04734375 5.3359375 25.5165625 6 26 C6 26.66 6 27.32 6 28 C2.37 28 -1.26 28 -5 28 C-5 27.34 -5 26.68 -5 26 C-4.03320312 25.29617187 -4.03320312 25.29617187 -3.046875 24.578125 C0.24270241 20.43476414 -0.32177971 15.89203764 -0.25 10.75 C-0.22035156 9.71875 -0.19070312 8.6875 -0.16015625 7.625 C-0.08955222 5.08325505 -0.03680991 2.54242217 0 0 Z " fill="#1D395D" transform="translate(252,163)"/>
<path d="M0 0 C0.33 0 0.66 0 1 0 C1.0093457 0.74161377 1.01869141 1.48322754 1.02832031 2.24731445 C1.08195751 5.60305714 1.16561793 8.95739562 1.25 12.3125 C1.26417969 13.47974609 1.27835937 14.64699219 1.29296875 15.84960938 C1.32519531 16.96787109 1.35742188 18.08613281 1.390625 19.23828125 C1.41157227 20.26993408 1.43251953 21.30158691 1.45410156 22.36450195 C1.74892311 25.14604993 1.74892311 25.14604993 4.03808594 26.73510742 C4.68551758 27.15252197 5.33294922 27.56993652 6 28 C6 28.66 6 29.32 6 30 C2.37 30 -1.26 30 -5 30 C-5 29.34 -5 28.68 -5 28 C-4.01 27.67 -3.02 27.34 -2 27 C-0.68638302 24.37276604 -0.78746091 22.27389439 -0.68359375 19.3359375 C-0.64169922 18.21445313 -0.59980469 17.09296875 -0.55664062 15.9375 C-0.51732422 14.761875 -0.47800781 13.58625 -0.4375 12.375 C-0.37272461 10.59996094 -0.37272461 10.59996094 -0.30664062 8.7890625 C-0.20032574 5.85949672 -0.09829358 2.92984412 0 0 Z " fill="#294466" transform="translate(457,161)"/>
<path d="M0 0 C0.99 0.33 1.98 0.66 3 1 C3 10.24 3 19.48 3 29 C2.67 29 2.34 29 2 29 C1.67 21.41 1.34 13.82 1 6 C0.01 9.3 -0.98 12.6 -2 16 C-4 13 -4 13 -3.57421875 10.625 C-3.28160156 9.75875 -2.98898438 8.8925 -2.6875 8 C-2.40261719 7.13375 -2.11773437 6.2675 -1.82421875 5.375 C-1.55222656 4.59125 -1.28023437 3.8075 -1 3 C-0.67 2.01 -0.34 1.02 0 0 Z " fill="#8191A6" transform="translate(257,117)"/>
<path d="M0 0 C0.33 0 0.66 0 1 0 C1.02505615 0.65597168 1.0501123 1.31194336 1.07592773 1.98779297 C1.1917326 4.95040183 1.31452886 7.91268031 1.4375 10.875 C1.47681641 11.90753906 1.51613281 12.94007813 1.55664062 14.00390625 C1.61948242 15.48310547 1.61948242 15.48310547 1.68359375 16.9921875 C1.72025146 17.90339355 1.75690918 18.81459961 1.79467773 19.75341797 C1.86577065 22.03483481 1.86577065 22.03483481 3 24 C3.99 24.33 4.98 24.66 6 25 C6 25.66 6 26.32 6 27 C2.04 27 -1.92 27 -6 27 C-6 26.34 -6 25.68 -6 25 C-4.02 24.34 -2.04 23.68 0 23 C0 15.41 0 7.82 0 0 Z " fill="#274165" transform="translate(218,164)"/>
<path d="M0 0 C0.33 0.66 0.66 1.32 1 2 C5.29 2 9.58 2 14 2 C13.67 2.66 13.34 3.32 13 4 C9.04 3.67 5.08 3.34 1 3 C0.95875 4.44375 0.9175 5.8875 0.875 7.375 C0.85179687 8.18710938 0.82859375 8.99921875 0.8046875 9.8359375 C0.78629949 12.21342243 0.78629949 12.21342243 3 14 C-0.3 14 -3.6 14 -7 14 C-6.01 13.01 -5.02 12.02 -4 11 C-2.78133025 8.28174215 -2.78133025 8.28174215 -1.8125 5.3125 C-1.46832031 4.31863281 -1.12414062 3.32476562 -0.76953125 2.30078125 C-0.51558594 1.54152344 -0.26164063 0.78226563 0 0 Z " fill="#49607E" transform="translate(203,135)"/>
<path d="M0 0 C3.96 0 7.92 0 12 0 C12 0.66 12 1.32 12 2 C11.01 2.33 10.02 2.66 9 3 C7.79729036 5.40541929 7.79683337 7.10366591 7.68359375 9.7890625 C7.64169922 10.73007813 7.59980469 11.67109375 7.55664062 12.640625 C7.49766602 14.11789063 7.49766602 14.11789063 7.4375 15.625 C7.39431641 16.61757812 7.35113281 17.61015625 7.30664062 18.6328125 C7.20038931 21.08839838 7.09835036 23.54408703 7 26 C6.67 26 6.34 26 6 26 C5.67 18.74 5.34 11.48 5 4 C2.525 3.01 2.525 3.01 0 2 C0 1.34 0 0.68 0 0 Z " fill="#294467" transform="translate(268,157)"/>
<path d="M0 0 C3.96 0 7.92 0 12 0 C12 0.66 12 1.32 12 2 C11.01 2 10.02 2 9 2 C8.04831317 4.85506049 7.8099054 6.90937282 7.68359375 9.88671875 C7.64169922 10.82451172 7.59980469 11.76230469 7.55664062 12.72851562 C7.49766602 14.19321289 7.49766602 14.19321289 7.4375 15.6875 C7.39431641 16.67556641 7.35113281 17.66363281 7.30664062 18.68164062 C7.20058346 21.12095546 7.09852286 23.56037113 7 26 C6.67 26 6.34 26 6 26 C5.67 18.74 5.34 11.48 5 4 C2.525 3.01 2.525 3.01 0 2 C0 1.34 0 0.68 0 0 Z " fill="#284366" transform="translate(473,157)"/>
<path d="M0 0 C3.96 0 7.92 0 12 0 C12 0.66 12 1.32 12 2 C10.02 2.99 10.02 2.99 8 4 C7.67 10.93 7.34 17.86 7 25 C6.67 25 6.34 25 6 25 C5.99589111 24.40985107 5.99178223 23.81970215 5.98754883 23.21166992 C5.95463852 20.53592984 5.88400379 17.86247525 5.8125 15.1875 C5.80669922 14.25873047 5.80089844 13.32996094 5.79492188 12.37304688 C5.71190813 9.81806815 5.5955271 7.48720141 5 5 C2.60569261 2.91829857 2.60569261 2.91829857 0 2 C0 1.34 0 0.68 0 0 Z " fill="#294468" transform="translate(234,157)"/>
<path d="M0 0 C0.33 0 0.66 0 1 0 C1.01458252 0.76666992 1.02916504 1.53333984 1.04418945 2.32324219 C1.1186922 5.79933493 1.21534646 9.27446968 1.3125 12.75 C1.33505859 13.9565625 1.35761719 15.163125 1.38085938 16.40625 C1.41630859 17.56640625 1.45175781 18.7265625 1.48828125 19.921875 C1.51446533 20.99018555 1.54064941 22.05849609 1.56762695 23.15917969 C1.83803584 26.44070775 1.83803584 26.44070775 5 30 C1.7 30 -1.6 30 -5 30 C-4.35256836 29.29786377 -3.70513672 28.59572754 -3.03808594 27.87231445 C-0.71280596 24.59525182 -0.47190243 23.00524358 -0.390625 19.04296875 C-0.35839844 17.93115234 -0.32617188 16.81933594 -0.29296875 15.67382812 C-0.27169922 13.9480957 -0.27169922 13.9480957 -0.25 12.1875 C-0.22035156 11.01767578 -0.19070312 9.84785156 -0.16015625 8.64257812 C-0.08960291 5.76164991 -0.03683271 2.88152422 0 0 Z " fill="#2B4668" transform="translate(234,119)"/>
<path d="M0 0 C5.875 0.875 5.875 0.875 7 2 C7.46993007 9.28391608 7.46993007 9.28391608 5.6875 12 C4 13 4 13 1 13 C1.09539062 12.31292969 1.19078125 11.62585938 1.2890625 10.91796875 C1.39992188 10.01691406 1.51078125 9.11585938 1.625 8.1875 C1.74101562 7.29417969 1.85703125 6.40085938 1.9765625 5.48046875 C2.23500743 2.74309609 2.23500743 2.74309609 0 0 Z " fill="#294366" transform="translate(332,200)"/>
<path d="M0 0 C1.09651823 3.41139003 0.94215473 6.20655581 0.5625 9.75 C0.46066406 10.73484375 0.35882813 11.7196875 0.25390625 12.734375 C0.12822266 13.85585937 0.12822266 13.85585937 0 15 C0.99 15 1.98 15 3 15 C3 15.66 3 16.32 3 17 C-0.3 17 -3.6 17 -7 17 C-7 16.34 -7 15.68 -7 15 C-6.01 14.34 -5.02 13.68 -4 13 C-2.75752778 9.90289577 -2.75752778 9.90289577 -1.8125 6.375 C-1.46832031 5.18648437 -1.12414062 3.99796875 -0.76953125 2.7734375 C-0.51558594 1.85820312 -0.26164062 0.94296875 0 0 Z " fill="#4F6582" transform="translate(351,216)"/>
<path d="M0 0 C4.62 0 9.24 0 14 0 C14.99 2.97 15.98 5.94 17 9 C16.34 9 15.68 9 15 9 C14.01 7.8553125 14.01 7.8553125 13 6.6875 C9.49765351 2.96295026 4.8267651 2.15280021 0 1 C0 0.67 0 0.34 0 0 Z " fill="#556B86" transform="translate(258,198)"/>
<path d="M0 0 C3.3 0 6.6 0 10 0 C10 0.66 10 1.32 10 2 C9.01 2.66 8.02 3.32 7 4 C6.49378487 6.02276681 6.49378487 6.02276681 6.48828125 8.3515625 C6.45283203 9.20234375 6.41738281 10.053125 6.38085938 10.9296875 C6.35830078 11.81914062 6.33574219 12.70859375 6.3125 13.625 C6.27833984 14.5221875 6.24417969 15.419375 6.20898438 16.34375 C6.12637598 18.56237538 6.05727281 20.7805994 6 23 C5.67 23 5.34 23 5 23 C4.97421875 21.84242188 4.9484375 20.68484375 4.921875 19.4921875 C4.86556651 17.95308872 4.8082198 16.41402767 4.75 14.875 C4.73582031 14.11445313 4.72164063 13.35390625 4.70703125 12.5703125 C4.47426533 7.1701431 3.38086085 4.23283778 0 0 Z " fill="#304A6C" transform="translate(301,199)"/>
<path d="M0 0 C0.66 0.66 1.32 1.32 2 2 C1.9765625 4.1640625 1.9765625 4.1640625 1.625 6.625 C1.51414062 7.44226563 1.40328125 8.25953125 1.2890625 9.1015625 C1.19367188 9.72804687 1.09828125 10.35453125 1 11 C1.99 11.33 2.98 11.66 4 12 C4 12.66 4 13.32 4 14 C0.7 14 -2.6 14 -6 14 C-6 13.34 -6 12.68 -6 12 C-5.53980469 11.56042969 -5.07960938 11.12085938 -4.60546875 10.66796875 C-2.66701711 8.65405427 -2.12185634 6.97181369 -1.3125 4.3125 C-1.06113281 3.50425781 -0.80976563 2.69601563 -0.55078125 1.86328125 C-0.36902344 1.24839844 -0.18726563 0.63351563 0 0 Z " fill="#3E5675" transform="translate(348,177)"/>
<path d="M0 0 C0.66 2.97 1.32 5.94 2 9 C1.34 9 0.68 9 0 9 C-0.5775 8.21625 -1.155 7.4325 -1.75 6.625 C-4.34121129 3.60192016 -6.19684394 2.95078902 -10 2 C-6.5980513 -0.09350689 -3.94727588 -0.17942163 0 0 Z " fill="#3E5776" transform="translate(399,157)"/>
<path d="M0 0 C0.66 1.32 1.32 2.64 2 4 C-0.84753719 6.76124819 -2.45026014 7.93003311 -6.4375 8.4375 C-10.22812744 7.97198435 -12.7231048 6.91818256 -16 5 C-14.0625 4.4375 -14.0625 4.4375 -12 4 C-11.67 4.33 -11.34 4.66 -11 5 C-9.48071962 5.07179964 -7.95832518 5.08392007 -6.4375 5.0625 C-5.61121094 5.05347656 -4.78492188 5.04445312 -3.93359375 5.03515625 C-2.97646484 5.01775391 -2.97646484 5.01775391 -2 5 C-1.34 3.35 -0.68 1.7 0 0 Z " fill="#455C7B" transform="translate(428,226)"/>
<path d="M0 0 C0.99 0.33 1.98 0.66 3 1 C3 1.99 3 2.98 3 4 C2.34 4 1.68 4 1 4 C0.896875 4.66 0.79375 5.32 0.6875 6 C-0.19213564 9.83841009 -1.56969896 13.33096691 -3 17 C-3.66 17 -4.32 17 -5 17 C-4.54619105 15.10307857 -4.08675008 13.20750405 -3.625 11.3125 C-3.36976563 10.25675781 -3.11453125 9.20101562 -2.8515625 8.11328125 C-2.08094511 5.29593234 -1.14501457 2.68331675 0 0 Z " fill="#526884" transform="translate(354,160)"/>
<path d="M0 0 C0 0.99 0 1.98 0 3 C-0.60328125 2.89300781 -1.2065625 2.78601563 -1.828125 2.67578125 C-6.75152542 1.78614157 -6.75152542 1.78614157 -11.3125 3.3125 C-11.869375 3.869375 -12.42625 4.42625 -13 5 C-14.31836295 5.69580267 -15.64791086 6.37224433 -17 7 C-14.05557537 -1.24438896 -7.39770878 -1.51242046 0 0 Z " fill="#4D6481" transform="translate(303,157)"/>
<path d="M0 0 C0.66 0.66 1.32 1.32 2 2 C-1 3 -1 3 -4.4375 2.875 C-8.318396 3.01117179 -9.12850958 3.64127573 -12 6 C-12.99 5.67 -13.98 5.34 -15 5 C-10.35327205 0.23412518 -6.69449083 -1.27195326 0 0 Z " fill="#3F5777" transform="translate(425,198)"/>
<path d="M0 0 C1.7734375 1.5546875 1.7734375 1.5546875 3 3 C2.34 3.66 1.68 4.32 1 5 C0.46375 4.505 -0.0725 4.01 -0.625 3.5 C-3.65118137 1.58872755 -5.47704517 1.62521757 -9 2 C-9.99 2.66 -10.98 3.32 -12 4 C-12.66 3.34 -13.32 2.68 -14 2 C-9.55282775 -1.58642924 -5.31687928 -1.57315904 0 0 Z " fill="#4A617F" transform="translate(440,157)"/>
<path d="M0 0 C0.556875 0.268125 1.11375 0.53625 1.6875 0.8125 C0.90375 1.34875 0.12 1.885 -0.6875 2.4375 C-3.64676299 5.11492842 -4.35858256 6.99683025 -5.3125 10.8125 C-6.3025 10.4825 -7.2925 10.1525 -8.3125 9.8125 C-8.00654824 6.24306285 -7.28825359 4.78235581 -5 1.9375 C-2.3125 -0.1875 -2.3125 -0.1875 0 0 Z " fill="#385172" transform="translate(259.3125,199.1875)"/>
<path d="M0 0 C2.31 0 4.62 0 7 0 C6.07038578 1.15224028 5.1309875 2.29659176 4.1875 3.4375 C3.40439453 4.39462891 3.40439453 4.39462891 2.60546875 5.37109375 C1 7 1 7 -2 8 C-1.34 5.36 -0.68 2.72 0 0 Z " fill="#3B5373" transform="translate(288,116)"/>
<path d="M0 0 C0.66 0 1.32 0 2 0 C0.6062718 4.43458973 -1.60582235 6.87378374 -5 10 C-7.31 9.34 -9.62 8.68 -12 8 C-12 7.67 -12 7.34 -12 7 C-10.7625 6.773125 -9.525 6.54625 -8.25 6.3125 C-4.03905728 5.29324355 -2.46221932 3.59862823 0 0 Z " fill="#455D7B" transform="translate(274,223)"/>
<path d="M0 0 C0.33 1.32 0.66 2.64 1 4 C-2.92074329 6.61382886 -6.44511017 6.29386386 -11 6 C-11.66 5.34 -12.32 4.68 -13 4 C-10 3 -10 3 -6.5 3.125 C-3.05342861 3.34275295 -3.05342861 3.34275295 -1.0625 1.5 C-0.711875 1.005 -0.36125 0.51 0 0 Z " fill="#48607E" transform="translate(441,186)"/>
<path d="M0 0 C3.3 0 6.6 0 10 0 C10 0.66 10 1.32 10 2 C8.03852126 3.38938077 6.03833424 4.7260411 4 6 C3.67 5.01 3.34 4.02 3 3 C2.01 2.67 1.02 2.34 0 2 C0 1.34 0 0.68 0 0 Z " fill="#415978" transform="translate(336,115)"/>
<path d="M0 0 C0.99 0.66 1.98 1.32 3 2 C2.37935063 3.60585493 1.7533082 5.20962617 1.125 6.8125 C0.77695312 7.70582031 0.42890625 8.59914062 0.0703125 9.51953125 C-1 12 -1 12 -3 15 C-4.43410153 11.21180727 -3.51009497 8.93478721 -2.0625 5.25 C-1.49208984 3.77273437 -1.49208984 3.77273437 -0.91015625 2.265625 C-0.60980469 1.51796875 -0.30945313 0.7703125 0 0 Z " fill="#4C6481" transform="translate(356,202)"/>
<path d="M0 0 C3.3 0 6.6 0 10 0 C10 0.66 10 1.32 10 2 C9.01 2 8.02 2 7 2 C6.34 3.32 5.68 4.64 5 6 C4.34 5.01 3.68 4.02 3 3 C2.01 2.67 1.02 2.34 0 2 C0 1.34 0 0.68 0 0 Z " fill="#2E496B" transform="translate(335,157)"/>
<path d="M0 0 C1.125 1.5625 1.125 1.5625 2 4 C1.125 7.75 1.125 7.75 0 11 C3.3 10.67 6.6 10.34 10 10 C10 10.66 10 11.32 10 12 C6.37 12 2.74 12 -1 12 C-2.24142712 7.03429151 -1.37261666 4.84452938 0 0 Z " fill="#627690" transform="translate(206,124)"/>
<path d="M0 0 C1.65 1.65 3.3 3.3 5 5 C4.34 5.66 3.68 6.32 3 7 C2.01 6.34 1.02 5.68 0 5 C-2.27912938 4.54605448 -2.27912938 4.54605448 -4.6875 4.375 C-5.89986328 4.26285156 -5.89986328 4.26285156 -7.13671875 4.1484375 C-7.75160156 4.09945312 -8.36648438 4.05046875 -9 4 C-9 3.67 -9 3.34 -9 3 C-6.69 3 -4.38 3 -2 3 C-2 2.34 -2 1.68 -2 1 C-1.34 0.67 -0.68 0.34 0 0 Z " fill="#516783" transform="translate(332,212)"/>
<path d="M0 0 C3.10408807 -0.05807043 6.2080364 -0.09361914 9.3125 -0.125 C10.19357422 -0.14175781 11.07464844 -0.15851563 11.98242188 -0.17578125 C12.82998047 -0.18222656 13.67753906 -0.18867188 14.55078125 -0.1953125 C15.72120972 -0.21102295 15.72120972 -0.21102295 16.9152832 -0.22705078 C19 0 19 0 22 2 C18.25 3.125 18.25 3.125 16 2 C12.3918084 1.96904738 8.79450541 2.06776369 5.1875 2.16015625 C2 2 2 2 0 0 Z " fill="#3D5776" transform="translate(440,199)"/>
<path d="M0 0 C1.43410153 3.78819273 0.51009497 6.06521279 -0.9375 9.75 C-1.31777344 10.73484375 -1.69804687 11.7196875 -2.08984375 12.734375 C-2.39019531 13.48203125 -2.69054687 14.2296875 -3 15 C-3.66 14.01 -4.32 13.02 -5 12 C-4.35546875 9.3359375 -4.35546875 9.3359375 -3.1875 6.375 C-2.62095703 4.90160156 -2.62095703 4.90160156 -2.04296875 3.3984375 C-1 1 -1 1 0 0 Z " fill="#445C7A" transform="translate(253,130)"/>
<path d="M0 0 C0.66 0.66 1.32 1.32 2 2 C-1.14591933 4.80045623 -3.067064 5.35261589 -7.25 5.1875 C-8.14203125 5.16042969 -9.0340625 5.13335937 -9.953125 5.10546875 C-10.96632813 5.05326172 -10.96632813 5.05326172 -12 5 C-10.3915023 3.10824485 -9.44340142 2.10524314 -6.9921875 1.5234375 C-5.94417969 1.44996094 -5.94417969 1.44996094 -4.875 1.375 C-1.22420033 1.43610274 -1.22420033 1.43610274 0 0 Z " fill="#77889E" transform="translate(302,229)"/>
<path d="M0 0 C2.00720923 0.28674418 4.0085944 0.61866701 6 1 C6 1.66 6 2.32 6 3 C2.37 3 -1.26 3 -5 3 C-3.68 2.34 -2.36 1.68 -1 1 C-0.67 0.67 -0.34 0.34 0 0 Z " fill="#1D385D" transform="translate(252,188)"/>
<path d="M0 0 C4.62 0 9.24 0 14 0 C10.33136771 1.83431614 8.03382645 2.74788585 4 3 C2.68 2.01 1.36 1.02 0 0 Z " fill="#3A5474" transform="translate(197,199)"/>
<path d="M0 0 C0.99 0 1.98 0 3 0 C3.66 1.32 4.32 2.64 5 4 C0.545 4.495 0.545 4.495 -4 5 C-2.1875 2.5 -2.1875 2.5 0 0 Z " fill="#475F7C" transform="translate(251,185)"/>
<path d="M0 0 C-1.13499394 3.29148243 -1.99283376 3.9959869 -5.125 5.75 C-6.548125 6.36875 -6.548125 6.36875 -8 7 C-6.47663111 3.31852519 -4.31953005 0 0 0 Z " fill="#405877" transform="translate(294,157)"/>
<path d="M0 0 C4.38332057 0.82187261 8.67940177 1.90154282 13 3 C13 3.33 13 3.66 13 4 C7.73946963 4.31563182 4.55426184 3.66590937 0 1 C0 0.67 0 0.34 0 0 Z " fill="#677B94" transform="translate(412,230)"/>
<path d="M0 0 C1.45792884 -0.05399736 2.91642712 -0.09279177 4.375 -0.125 C5.18710937 -0.14820313 5.99921875 -0.17140625 6.8359375 -0.1953125 C9 0 9 0 11 2 C6.74938644 3.41687119 4.28148375 2.19320039 0 1 C0 0.67 0 0.34 0 0 Z " fill="#71839B" transform="translate(416,198)"/>
</svg>
